<svg viewBox="0 0 24.122 23.274" fill="currentColor" xmlns="http://www.w3.org/2000/svg" > <path transform="translate(-0.439,-0.863)" d="m 16.349,24.099 -0.065,-0.038 -0.202,-0.011 -0.202,-0.01 -0.276,-0.026 -0.276,-0.026 v -0.026 -0.027 l -0.205,-0.04 -0.205,-0.04 -0.168,-0.08 -0.168,-0.08 -0.001,-0.041 -0.001,-0.041 -0.266,-0.144 -0.267,-0.144 -0.276,-0.203 -0.276,-0.203 -0.262,-0.252 -0.262,-0.252 -0.221,-0.285 -0.221,-0.285 -0.17,-0.285 -0.17,-0.285 -0.013,-0.014 -0.013,-0.014 -0.142,0.161 -0.142,0.161 -0.223,0.214 -0.223,0.214 -0.186,0.146 -0.186,0.146 -0.253,0.163 -0.253,0.163 -0.249,0.115 -0.249,0.115 0.005,0.032 0.005,0.032 -0.172,0.046 -0.172,0.046 -0.338,0.101 -0.338,0.101 -0.178,0.045 -0.178,0.045 -0.391,0.026 -0.391,0.026 -0.356,-0.035 -0.356,-0.035 -0.037,-0.03 -0.037,-0.03 -0.077,0.02 -0.077,0.02 -0.051,-0.051 -0.05,-0.051 -0.209,-0.046 -0.209,-0.046 -0.297,-0.103 -0.297,-0.103 -0.326,-0.163 -0.326,-0.163 -0.327,-0.228 -0.327,-0.228 -0.305,-0.288 -0.305,-0.288 -0.224,-0.29 -0.224,-0.29 -0.127,-0.213 -0.127,-0.213 -0.107,-0.214 -0.107,-0.214 -0.125,-0.338 -0.125,-0.338 -0.083,-0.391 -0.083,-0.391 0,-0.694 0,-0.694 0.064,-0.319 0.064,-0.319 0.109,-0.339 0.109,-0.339 0.157,-0.319 0.158,-0.319 0.07,-0.114 0.07,-0.114 -0.099,-0.068 -0.099,-0.068 -0.178,-0.101 -0.178,-0.101 -0.267,-0.196 -0.267,-0.196 -0.262,-0.252 -0.262,-0.252 -0.189,-0.235 -0.189,-0.235 -0.159,-0.247 -0.159,-0.247 -0.129,-0.266 -0.129,-0.266 -0.121,-0.338 -0.121,-0.338 -0.083,-0.391 -0.083,-0.391 0.002,-0.694 0.002,-0.694 0.1,-0.426 0.1,-0.426 0.132,-0.342 0.132,-0.342 0.167,-0.307 0.167,-0.307 0.219,-0.296 0.219,-0.296 0.252,-0.262 0.252,-0.262 0.231,-0.185 0.231,-0.185 0.231,-0.151 0.231,-0.151 0.321,-0.155 0.321,-0.155 0.177,-0.065 0.177,-0.065 0.178,-0.338 0.178,-0.338 0.213,-0.302 0.213,-0.302 0.314,-0.326 0.314,-0.326 0.256,-0.196 0.256,-0.196 0.305,-0.179 0.305,-0.179 0.316,-0.131 0.316,-0.131 0.21,-0.067 0.21,-0.067 0.397,-0.079 0.397,-0.079 0.587,0.003 0.587,0.003 0.445,0.092 0.445,0.092 0.302,0.111 0.302,0.111 0.33,0.165 0.33,0.165 0.239,-0.232 0.239,-0.232 0.16,-0.126 0.16,-0.126 0.16,-0.102 0.16,-0.102 0.142,-0.082 0.142,-0.082 0.231,-0.109 0.231,-0.109 0.267,-0.099 0.267,-0.099 0.32,-0.074 0.32,-0.074 0.356,-0.042 0.356,-0.042 0.427,0.024 0.427,0.024 0.356,0.071 0.356,0.071 0.285,0.093 0.285,0.093 0.285,0.131 0.285,0.131 0.238,0.145 0.238,0.145 0.259,0.196 0.259,0.196 0.291,0.297 0.291,0.297 0.152,0.194 0.152,0.194 0.135,0.215 0.135,0.215 0.155,0.32 0.155,0.32 0.094,0.268 0.094,0.268 0.069,0.332 0.069,0.332 0.011,0.008 0.011,0.008 0.445,0.217 0.445,0.217 0.309,0.216 0.309,0.216 0.31,0.293 0.31,0.293 0.188,0.235 0.188,0.235 0.167,0.257 0.167,0.257 0.153,0.326 0.153,0.326 0.09,0.267 0.09,0.267 0.083,0.391 0.083,0.391 -0.001,0.658 -0.001,0.658 -0.064,0.316 -0.064,0.316 -0.09,0.289 -0.09,0.289 -0.123,0.281 -0.123,0.281 -0.147,0.252 -0.147,0.252 -0.19,0.259 -0.19,0.259 -0.255,0.268 -0.255,0.268 -0.287,0.223 -0.287,0.223 -0.32,0.188 -0.32,0.188 -0.043,0.035 -0.043,0.035 0.056,0.13 0.056,0.13 0.087,0.213 0.087,0.213 0.19,0.729 0.19,0.729 0.065,0.302 0.065,0.302 -0.002,0.676 -0.002,0.676 -0.08,0.374 -0.08,0.374 -0.09,0.267 -0.09,0.267 -0.19,0.391 -0.19,0.391 -0.223,0.32 -0.223,0.32 -0.304,0.315 -0.304,0.315 -0.285,0.221 -0.285,0.221 -0.22,0.132 -0.22,0.132 -0.242,0.107 -0.242,0.107 -0.089,0.047 -0.089,0.047 -0.249,0.072 -0.249,0.072 -0.322,0.057 -0.322,0.057 -0.283,-0.003 -0.283,-0.003 -0.071,-0.003 -0.071,-0.003 -0.178,-0.003 -0.178,-0.003 -0.125,0.026 -0.125,0.026 z m -4.47,-5.35 0.215,-0.017 0.207,-0.068 0.207,-0.068 0.244,-0.118 0.244,-0.118 0.274,-0.207 0.275,-0.207 0.229,-0.257 0.229,-0.257 0.219,-0.285 0.219,-0.285 0.189,-0.285 0.189,-0.285 0.215,-0.374 0.215,-0.374 0.134,-0.312 0.134,-0.312 0.029,-0.018 0.029,-0.018 0.197,0.262 0.197,0.262 0.164,0.151 0.164,0.151 0.202,0.093 0.202,0.093 0.302,0.014 0.302,0.014 0.213,-0.08 0.213,-0.08 0.201,-0.205 0.201,-0.205 0.092,-0.279 0.092,-0.279 0.058,-0.302 0.058,-0.302 -0.018,-0.427 -0.018,-0.427 -0.077,-0.426 -0.077,-0.426 -0.086,-0.321 -0.086,-0.321 -0.141,-0.402 -0.141,-0.402 -0.167,-0.31 -0.167,-0.31 -0.117,-0.16 -0.117,-0.16 -0.125,-0.12 -0.125,-0.12 0.019,-0.183 0.019,-0.183 -0.061,-0.249 -0.061,-0.249 -0.134,-0.285 -0.134,-0.285 -0.183,-0.203 -0.183,-0.203 -0.173,-0.127 -0.173,-0.127 -0.204,0.123 -0.204,0.123 -0.267,0.059 -0.267,0.059 -0.206,-0.022 -0.206,-0.022 -0.235,-0.088 -0.235,-0.088 -0.118,-0.09 -0.118,-0.09 h -0.039 -0.039 l -0.055,0.117 -0.056,0.117 -0.159,0.181 -0.159,0.181 -0.17,0.109 -0.17,0.109 -0.221,0.074 -0.221,0.074 h -0.28 -0.28 l -0.196,-0.068 -0.196,-0.068 -0.113,-0.058 -0.113,-0.058 -0.24,-0.221 -0.24,-0.221 -0.096,-0.085 -0.096,-0.085 -0.219,0.198 -0.219,0.198 -0.165,0.078 -0.165,0.078 -0.178,0.048 -0.178,0.048 -0.219,0 -0.219,0 -0.225,-0.07 -0.225,-0.07 -0.102,0.097 -0.102,0.097 -0.121,0.164 -0.121,0.164 -0.17,0.063 -0.17,0.063 -0.115,0.086 -0.115,0.086 -0.109,0.114 -0.109,0.114 -0.356,0.529 -0.356,0.529 -0.216,0.45 -0.216,0.45 -0.222,0.463 -0.222,0.463 -0.146,0.338 -0.146,0.338 -0.055,0.22 -0.055,0.22 -0.016,0.207 -0.016,0.207 0.034,0.243 0.034,0.243 0.096,0.197 0.096,0.197 0.144,0.125 0.144,0.125 0.187,0.087 0.187,0.087 0.275,0.002 0.275,0.002 0.231,-0.098 0.231,-0.098 0.107,-0.076 0.107,-0.076 0.368,-0.294 0.368,-0.294 0.027,0.017 0.027,0.017 0.024,0.467 0.024,0.467 0.088,0.513 0.088,0.513 0.089,0.364 0.089,0.364 0.132,0.302 0.132,0.302 0.105,0.16 0.105,0.16 0.11,0.119 0.11,0.119 0.285,0.206 0.285,0.206 0.144,0.073 0.144,0.073 0.215,0.056 0.215,0.056 0.246,0.031 0.246,0.031 0.205,-0.013 0.205,-0.013 z m 0.686,-3.497 -0.113,-0.061 -0.106,-0.134 -0.106,-0.134 -0.044,-0.184 -0.044,-0.184 0.024,-0.554 0.024,-0.554 0.035,-0.427 0.035,-0.427 0.072,-0.374 0.072,-0.374 0.054,-0.211 0.054,-0.211 0.067,-0.132 0.067,-0.132 0.132,-0.109 0.132,-0.109 0.188,-0.042 0.188,-0.042 0.17,0.065 0.17,0.065 0.114,0.124 0.114,0.124 0.041,0.185 0.041,0.185 -0.111,0.46 -0.111,0.46 -0.034,0.266 -0.034,0.266 -0.04,0.818 -0.04,0.818 -0.038,0.152 -0.038,0.152 -0.111,0.111 -0.111,0.111 -0.114,0.049 -0.114,0.049 -0.188,-0.002 -0.188,-0.002 z m -2.809,-0.358 -0.146,-0.068 -0.088,-0.12 -0.088,-0.12 -0.039,-0.107 -0.039,-0.107 -0.022,-0.135 -0.022,-0.135 -0.032,-0.47 -0.032,-0.47 0.036,-0.445 0.036,-0.445 0.049,-0.215 0.049,-0.215 0.076,-0.203 0.076,-0.203 0.094,-0.111 0.094,-0.111 0.144,-0.065 0.144,-0.065 h 0.142 0.142 l 0.142,0.066 0.142,0.066 0.093,0.102 0.093,0.102 0.04,0.121 0.04,0.121 v 0.152 0.152 l -0.033,0.088 -0.033,0.088 -0.057,0.276 -0.057,0.276 0,0.43 0,0.43 0.043,0.393 0.043,0.393 -0.092,0.201 -0.092,0.201 -0.149,0.098 -0.149,0.098 -0.201,0.012 -0.201,0.012 z" /> </svg>
