<svg viewBox="-0.5 -0.5 16 16" fill="none" xmlns="http://www.w3.org/2000/svg" id="Instagram-Alt--Streamline-Unicons" height="16" width="16"><desc>Instagram Alt Streamline Icon: https://streamlinehq.com</desc><path d="M7.5 5.6771875000000005c-0.3605 0 -0.7129375 0.1069375 -1.0126875 0.3071875 -0.29975 0.200375 -0.533375 0.485 -0.671375 0.8180624999999999 -0.1379375 0.33306250000000004 -0.1740625 0.6996249999999999 -0.10368749999999999 1.0531875 0.0703125 0.3535625 0.24393749999999997 0.678375 0.498875 0.93325 0.254875 0.255 0.5796875 0.428625 0.9333125 0.498875 0.3535 0.0703125 0.7200624999999999 0.03425 1.053125 -0.10368749999999999 0.33306250000000004 -0.138 0.61775 -0.371625 0.818 -0.671375 0.200375 -0.29975 0.30724999999999997 -0.6521875 0.30724999999999997 -1.0126875 0 -0.239375 -0.047125 -0.47643749999999996 -0.13875 -0.6975625000000001 -0.09162500000000001 -0.22112500000000002 -0.225875 -0.4220625 -0.39518749999999997 -0.5913125 -0.16924999999999998 -0.16931249999999998 -0.3701875 -0.3035625 -0.5913125 -0.39518749999999997 -0.22112500000000002 -0.09156249999999999 -0.45818749999999997 -0.13875 -0.6975625000000001 -0.13875Zm7.2985625 -1.80075c-0.003875 -0.5675625 -0.10843749999999999 -1.1300000000000001 -0.3086875 -1.6610625 -0.1475625 -0.388625 -0.3758125 -0.7415625000000001 -0.6697500000000001 -1.0355 -0.2939375 -0.2939375 -0.646875 -0.5221875 -1.0355 -0.6697500000000001 -0.5310625 -0.2003125 -1.0935000000000001 -0.30481250000000004 -1.6610625 -0.3086875C10.175374999999999 0.15 9.896125 0.15 7.5 0.15s-2.675375 0 -3.6235625 0.0514375c-0.5675625 0.003875 -1.1300000000000001 0.108375 -1.6610625 0.3086875 -0.388625 0.1475625 -0.7415625000000001 0.3758125 -1.0355 0.6697500000000001 -0.2939375 0.2939375 -0.5221875 0.646875 -0.6697500000000001 1.0355 -0.2003125 0.5310625 -0.30481250000000004 1.0935000000000001 -0.3086875 1.6610625C0.15 4.824625 0.15 5.103875 0.15 7.5s0 2.675375 0.0514375 3.6235625c0.0079375 0.569625 0.1123125 1.13375 0.3086875 1.6684375 0.14687499999999998 0.3868125 0.375 0.7377499999999999 0.668875 1.0290000000000001 0.2926875 0.2956875 0.646375 0.524 1.036375 0.668875 0.5310625 0.20025 1.0935000000000001 0.30481250000000004 1.6610625 0.3086875C4.824625 14.850000000000001 5.103875 14.850000000000001 7.5 14.850000000000001s2.675375 0 3.6235625 -0.0514375c0.5675625 -0.003875 1.1300000000000001 -0.10843749999999999 1.6610625 -0.3086875 0.39 -0.144875 0.7436875 -0.3731875 1.036375 -0.668875 0.2939375 -0.29125 0.522 -0.6421875 0.668875 -1.0290000000000001 0.200125 -0.5336875 0.3045625 -1.0984375 0.3086875 -1.6684375 0.0514375 -0.9481875 0.0514375 -1.2274375 0.0514375 -3.6235625s0 -2.675375 -0.0514375 -3.6235625Zm-1.8669375 5.88c-0.0235625 0.4535625 -0.120375 0.900375 -0.286625 1.323 -0.1426875 0.352625 -0.3548125 0.6728125 -0.6236875 0.9418749999999999 -0.2690625 0.2689375 -0.5892499999999999 0.481 -0.9418749999999999 0.6236875 -0.426625 0.15699999999999997 -0.875875 0.243875 -1.3303124999999998 0.25725000000000003H5.250875000000001c-0.454375 -0.013375 -0.9036875 -0.10024999999999999 -1.3303124999999998 -0.25725000000000003 -0.36450000000000005 -0.1354375 -0.6936249999999999 -0.3515625 -0.9628749999999999 -0.632125 -0.2663125 -0.263625 -0.472 -0.5821875 -0.6026875 -0.9334375 -0.157625 -0.42618749999999994 -0.242125 -0.8759375 -0.24987499999999999 -1.3303124999999998V5.250875000000001c0.00775 -0.4543125 0.09225 -0.9041250000000001 0.24987499999999999 -1.3303124999999998 0.1354375 -0.36450000000000005 0.3515625 -0.6936249999999999 0.632125 -0.9628749999999999 0.2648125 -0.264875 0.583 -0.47031249999999997 0.9334375 -0.6026875 0.426625 -0.15699999999999997 0.8759375 -0.243875 1.3303124999999998 -0.25725000000000003h4.49825c0.4544375 0.013375 0.9036875 0.10024999999999999 1.3303124999999998 0.25725000000000003 0.36450000000000005 0.1354375 0.6936249999999999 0.3515625 0.9628749999999999 0.632125 0.26625 0.2636875 0.472 0.5821875 0.6026875 0.9334375 0.15699999999999997 0.426625 0.243875 0.8759375 0.25725000000000003 1.3303124999999998V7.5c0 1.514125 0.0514375 1.6684375 0.029375 2.249125v0.0073125ZM11.755625 4.2880625c-0.08750000000000001 -0.23743750000000002 -0.2255 -0.4530625 -0.40437500000000004 -0.6319375 -0.178875 -0.1789375 -0.3945625 -0.3169375 -0.6319375 -0.4044375 -0.32599999999999996 -0.11299999999999999 -0.6693749999999999 -0.1676875 -1.0143125 -0.16168749999999998H5.295c-0.3466875 0.0033750000000000004 -0.6901250000000001 0.0680625 -1.0143125 0.19112500000000002 -0.23375 0.08349999999999999 -0.44706250000000003 0.21587499999999998 -0.62575 0.3881875 -0.1786875 0.172375 -0.3186875 0.38075 -0.41056250000000005 0.611375 -0.10675000000000001 0.327375 -0.1589375 0.6700625 -0.15437499999999998 1.0143125v4.41c0.0073125 0.3463125 0.07187500000000001 0.6890625 0.19112500000000002 1.0143125 0.08750000000000001 0.237375 0.2254375 0.4530625 0.40437500000000004 0.6319375 0.1789375 0.178875 0.3945625 0.316875 0.6319375 0.40437500000000004 0.31362500000000004 0.11537499999999999 0.643625 0.179875 0.9775625 0.19112500000000002h4.41c0.3466875 -0.0033750000000000004 0.6901250000000001 -0.0680625 1.0143125 -0.19112500000000002 0.237375 -0.08750000000000001 0.4530625 -0.2255 0.6319375 -0.40437500000000004 0.178875 -0.178875 0.316875 -0.3945625 0.40437500000000004 -0.6319375 0.12306249999999999 -0.3241875 0.18775 -0.667625 0.19112500000000002 -1.0143125V5.295c0.00025 -0.3470625 -0.064625 -0.691125 -0.19112500000000002 -1.0143125v0.007375ZM7.5 10.3076875c-0.368375 0 -0.7330625000000001 -0.0726875 -1.0733125000000001 -0.213875s-0.6493125 -0.34806249999999994 -0.9094375 -0.6089375c-0.260125 -0.2608125 -0.46625 -0.570375 -0.6065625 -0.9109375 -0.14024999999999999 -0.340625 -0.212 -0.7055625 -0.2110625 -1.0739375 0 -0.5555625 0.164875 -1.09875 0.47375 -1.560625 0.3088125 -0.461875 0.7477499999999999 -0.82175 1.26125 -1.0340625 0.5134375 -0.21225 1.078375 -0.2674375 1.6231875000000002 -0.1585 0.5448125 0.1089375 1.0450625 0.37706249999999997 1.4375 0.7704374999999999 0.3923125 0.3934375 0.6591875 0.894375 0.7666875 1.4395 0.10749999999999998 0.5451874999999999 0.050875000000000004 1.1099375 -0.1628125 1.6228124999999998 -0.2135625 0.512875 -0.5746249999999999 0.950875 -1.0373125 1.2585625 -0.4626875 0.30756249999999996 -1.00625 0.47106250000000005 -1.5618750000000001 0.4695625Zm2.94 -5.064125000000001c-0.1625 -0.0171875 -0.31281249999999994 -0.0939375 -0.422125 -0.215375 -0.10925000000000001 -0.1214375 -0.16975 -0.2790625 -0.16975 -0.4424375s0.0604375 -0.32099999999999995 0.16975 -0.4425 0.259625 -0.198125 0.422125 -0.215375c0.1625 0.01725 0.31281249999999994 0.0939375 0.422125 0.215375 0.1093125 0.1215 0.16975 0.2790625 0.16975 0.4425s-0.0604375 0.3209375 -0.16975 0.4424375 -0.259625 0.1981875 -0.422125 0.215375Z" fill="currentColor" stroke-width="1"></path></svg>
