<svg viewBox="-0.5 -0.5 16 16" fill="none" xmlns="http://www.w3.org/2000/svg" id="Linkedin--Streamline-Unicons" height="16" width="16"><desc>Linkedin Streamline Icon: https://streamlinehq.com</desc><path d="M13.725375 0.150125H1.2746250000000001C1.1346874999999998 0.148125 0.9956875 0.1738125 0.865625 0.2255625 0.735625 0.277375 0.6170625 0.35424999999999995 0.5166875 0.4518125 0.416375 0.5494375 0.33625000000000005 0.6658124999999999 0.2809375 0.7943749999999999c-0.055375 0.1285625 -0.08481249999999999 0.2668125 -0.08675000000000001 0.40675000000000006v12.597750000000001c0.0019375 0.1399375 0.031375 0.2781875 0.08675000000000001 0.40675000000000006s0.1354375 0.24493750000000003 0.23575 0.3425625c0.10037499999999999 0.097625 0.2189375 0.1745 0.3489375 0.22625 0.1300625 0.0518125 0.2690625 0.07743749999999999 0.409 0.0754375h12.45075c0.1399375 0.002 0.2789375 -0.023625 0.4089375 -0.0754375 0.130125 -0.05175 0.24862499999999998 -0.12862500000000002 0.349 -0.22625 0.1003125 -0.097625 0.1804375 -0.21406250000000002 0.23575 -0.3425625 0.055375 -0.1285625 0.08481249999999999 -0.2668125 0.08675000000000001 -0.40675000000000006V1.201125c-0.0019375 -0.1399375 -0.031375 -0.278125 -0.08675000000000001 -0.40675000000000006 -0.0553125 -0.1285625 -0.1354375 -0.24493750000000003 -0.23575 -0.3425625 -0.10037499999999999 -0.0975625 -0.21887500000000001 -0.1745 -0.349 -0.22625 -0.13 -0.05175 -0.269 -0.07743749999999999 -0.4089375 -0.0754375ZM4.6261875 12.453812500000002h-2.205V5.8389375h2.205v6.614875ZM3.5236875000000003 4.9128125c-0.3040625 0 -0.5956874999999999 -0.12075000000000001 -0.81075 -0.3358125 -0.21499999999999997 -0.21499999999999997 -0.3358125 -0.506625 -0.3358125 -0.81075 0 -0.3040625 0.1208125 -0.59575 0.3358125 -0.81075 0.21506250000000002 -0.21506250000000002 0.5066875 -0.3358125 0.81075 -0.3358125 0.1615 -0.0183125 0.325 -0.0023125000000000003 0.47987500000000005 0.0469375 0.15487499999999998 0.049249999999999995 0.2975625 0.1306875 0.41875 0.23893749999999997 0.12125 0.10825 0.2181875 0.240875 0.284625 0.3891875 0.066375 0.1483125 0.10075 0.309 0.10075 0.4715 0 0.1625 -0.034375 0.3231875 -0.10075 0.4715 -0.06643750000000001 0.1483125 -0.16337500000000002 0.2809375 -0.284625 0.3891875 -0.12118749999999999 0.10825 -0.263875 0.1896875 -0.41875 0.23893749999999997 -0.15487499999999998 0.049312499999999995 -0.31837499999999996 0.0653125 -0.47987500000000005 0.047ZM12.578750000000001 12.453812500000002h-2.2049374999999998v-3.55c0 -0.8893125000000001 -0.3160625 -1.4699375000000001 -1.1171875 -1.4699375000000001 -0.2479375 0.0018124999999999999 -0.489375 0.0795625 -0.69175 0.2228125s-0.356 0.34506250000000005 -0.44012500000000004 0.5783125c-0.0575625 0.17275 -0.0825 0.3546875 -0.0735 0.5365v3.675H5.8462499999999995V5.8315625h2.205v0.9334375c0.20025 -0.3475625 0.491625 -0.6339375 0.8425625000000001 -0.8281875 0.3510625 -0.19425 0.748375 -0.2890625 1.1492499999999999 -0.2743125 1.47 0 2.5356875 0.9481249999999999 2.5356875 2.9840625v3.80725Z" fill="currentColor" stroke-width="1"></path></svg>
