<!DOCTYPE svg PUBLIC "-//W3C//DTD SVG 1.1//EN" "http://www.w3.org/Graphics/SVG/1.1/DTD/svg11.dtd">
<!-- Uploaded to: SVG Repo, www.svgrepo.com, Transformed by: SVG Repo Mixer Tools -->
<svg fill="#ffffff" height="800px" width="800px" version="1.1" id="Layer_1" xmlns="http://www.w3.org/2000/svg" xmlns:xlink="http://www.w3.org/1999/xlink" viewBox="0 0 512.001 512.001" xml:space="preserve" stroke="#ffffff" stroke-width="2.560005">
<g id="SVGRepo_bgCarrier" stroke-width="0"/>
<g id="SVGRepo_tracerCarrier" stroke-linecap="round" stroke-linejoin="round"/>
<g id="SVGRepo_iconCarrier"> <g> <g> <path d="M396.288,169.61c0-27.178-22.094-49.288-49.252-49.288c-12.872,0-25.205,5.117-34.329,13.97 c-16.287-12.7-35.777-20.106-56.707-20.106c-20.811,0-40.2,7.323-56.431,19.892c-9.104-8.717-21.358-13.756-34.104-13.756 c-9.878,0-19.41,2.917-27.564,8.438c-3.585,2.426-4.523,7.298-2.097,10.883c2.425,3.585,7.298,4.523,10.883,2.097 c5.552-3.757,12.046-5.744,18.78-5.744c8.443,0,16.322,3.078,22.425,8.593c-14.542,15.118-25.467,34.979-31.028,57.52 c-14.43-3.819-24.975-17.013-24.975-32.498c0-4.573,0.899-9.004,2.673-13.17c1.696-3.982-0.158-8.585-4.14-10.28 c-3.98-1.694-8.585,0.159-10.28,4.14c-2.605,6.117-3.926,12.614-3.926,19.309c0,23.096,16.013,42.708,37.748,47.92 c-0.796,6.096-1.211,12.339-1.211,18.694c0,67.291,46.318,122.037,103.251,122.037s103.25-54.745,103.25-122.037 c0-6.313-0.408-12.517-1.194-18.574C380.069,212.636,396.288,192.982,396.288,169.61z M256.001,342.586 c-48.29,0-87.577-47.714-87.577-106.363c0-58.649,39.287-106.363,87.577-106.363s87.576,47.714,87.576,106.363 C343.577,294.872,304.291,342.586,256.001,342.586z M355.172,202.235c-5.52-22.465-16.368-42.274-30.814-57.388 c6.143-5.618,14.24-8.851,22.677-8.851c18.516,0,33.579,15.079,33.579,33.614C380.615,185.334,369.863,198.596,355.172,202.235z"/> </g> </g> <g> <g> <path d="M501.918,215.292c1.656-24.758-8.653-56.066-41.915-72.146c-0.029-11.828-3.602-21.902-10.654-30.006 c-10.352-11.897-25.567-16.161-34.073-17.665c-2.674-13.208-7.54-24.286-14.504-32.994c-2.702-3.379-7.636-3.929-11.014-1.226 c-3.38,2.703-3.93,7.634-1.227,11.015c6.218,7.776,10.344,18.333,12.265,31.377c0.541,3.677,3.614,6.468,7.324,6.683 c0.191,0.012,19.153,1.241,29.46,13.162c5.289,6.116,7.437,13.955,6.564,23.965c-0.298,3.42,1.666,6.636,4.843,7.935 c38.198,15.606,37.768,51.765,37.292,58.855c-1.654,24.706-10.109,40.818-26.61,50.707c-1.792,1.074-3.08,2.819-3.581,4.847 c-0.5,2.028-0.169,4.172,0.92,5.956c4.069,6.671,13.457,26.939,8.108,40.439c-2.57,6.487-8.383,10.897-17.774,13.482 c-3.914,1.077-6.354,4.986-5.627,8.981c0.045,0.247,4.335,24.834-8.81,41.819c-7.685,9.932-20.138,15.596-37.013,16.836 c-2.25,0.166-4.32,1.293-5.679,3.092c-1.36,1.8-1.878,4.098-1.421,6.308c1.701,8.24-0.787,15.661-6.825,20.358 c-8.242,6.41-21.201,6.583-33.817,0.453c-3.07-1.491-6.767-0.81-9.118,1.662c-0.533,0.56-5.243,5.417-12.812,10.296 c-0.522,0.257-1.018,0.558-1.465,0.919c-14.608,8.971-38.642,17.106-63.837-2.383c-1.372-1.063-3.059-1.638-4.795-1.638h-0.251 c-1.736,0-3.422,0.576-4.795,1.638c-25.194,19.489-49.228,11.354-63.833,2.387c-0.45-0.365-0.949-0.668-1.475-0.926 c-7.56-4.875-12.264-9.724-12.792-10.28c-2.35-2.495-6.049-3.175-9.129-1.676c-12.618,6.129-25.576,5.956-33.817-0.453 c-6.038-4.697-8.526-12.118-6.825-20.358c0.457-2.209-0.063-4.508-1.422-6.308c-1.359-1.8-3.428-2.927-5.679-3.092 c-16.874-1.24-29.327-6.905-37.013-16.836c-13.145-16.986-8.854-41.573-8.814-41.799c0.752-4.006-1.693-7.92-5.622-9.002 c-9.377-2.581-15.188-6.982-17.763-13.454c-5.339-13.415,4.04-33.767,8.098-40.466c1.088-1.784,1.419-3.928,0.918-5.956 c-0.5-2.028-1.789-3.773-3.581-4.847c-16.501-9.889-24.956-26.001-26.61-50.706c-0.474-7.091-0.905-43.25,37.291-58.856 c3.179-1.299,5.141-4.514,4.843-7.935c-0.871-10.009,1.275-17.849,6.564-23.965c10.307-11.919,29.27-13.15,29.437-13.161 c3.729-0.193,6.803-2.99,7.348-6.684c2.714-18.426,9.779-31.749,21-39.6c17.127-11.982,38.913-7.662,39.106-7.62 c3.679,0.788,7.393-1.15,8.855-4.612c10.831-25.622,23.485-24.109,39.508-22.196c1.957,0.234,3.981,0.475,5.971,0.653 c2.865,0.256,5.628-1.073,7.219-3.462c4.578-6.871,13.444-11.138,23.14-11.138c9.697,0,18.563,4.266,23.137,11.135 c1.589,2.388,4.354,3.716,7.218,3.462c1.991-0.178,4.014-0.419,5.972-0.653c16.018-1.913,28.675-3.427,39.508,22.196 c1.462,3.462,5.18,5.399,8.855,4.612c0.156-0.033,16.001-3.15,31.158,3.245c3.984,1.679,8.584-0.186,10.267-4.173 c1.682-3.987-0.186-8.584-4.173-10.267c-13.336-5.627-26.628-5.649-34.195-4.995c-15.448-30.701-38.046-28-53.278-26.181 c-0.439,0.052-0.871,0.104-1.3,0.155C281.328,5.347,269.053,0,256.001,0c-13.052,0-25.326,5.347-33.167,14.21 c-0.428-0.05-0.861-0.102-1.3-0.155c-15.228-1.821-37.827-4.519-53.277,26.177c-9.602-0.833-28.408-0.578-44.877,10.861 c-13.676,9.499-22.627,24.412-26.657,44.381c-8.508,1.504-23.72,5.769-34.07,17.665c-7.052,8.104-10.625,18.178-10.655,30.006 c-33.261,16.08-43.57,47.388-41.915,72.147c1.794,26.789,10.975,46.155,28.002,58.948c-4.934,10.305-12.533,30.661-5.771,47.727 c3.741,9.441,11.05,16.375,21.771,20.674c-0.709,10.474-0.1,30.908,12.526,47.314c9.187,11.937,22.753,19.347,40.402,22.09 c0.1,10.862,4.822,20.728,13.397,27.398c5.8,4.512,12.856,7.165,20.492,7.952c2.257,12.23,7.159,39.728,8.191,53.198 c0.491,6.397,5.983,11.408,12.504,11.408h10.17c5.909,0,10.94-3.96,12.235-9.631c1.946-8.526,5.716-26.757,6.455-42.765 c0.282,0.121,0.557,0.248,0.842,0.367c15.898,6.65,39.651,10.651,64.701-6.183c13.119,8.815,25.88,11.917,37.344,11.917 c10.428,0,19.785-2.567,27.359-5.734c0.285-0.119,0.56-0.245,0.842-0.367c0.74,16.006,4.51,34.237,6.454,42.763 c1.294,5.672,6.325,9.632,12.235,9.632h10.17c6.521,0,12.014-5.011,12.505-11.409c1.032-13.469,5.933-40.965,8.19-53.197 c7.636-0.786,14.692-3.44,20.492-7.953c8.574-6.67,13.297-16.536,13.397-27.397c17.647-2.743,31.215-10.154,40.401-22.09 c12.628-16.407,13.237-36.84,12.526-47.314c10.722-4.3,18.032-11.233,21.771-20.674c6.762-17.064-0.837-37.421-5.771-47.727 C490.944,261.448,500.124,242.082,501.918,215.292z M169.292,496.327h-4.843c-1.295-13.051-4.869-33.819-7.192-46.653 l17.661,3.382C175.18,467.414,171.27,487.271,169.292,496.327z M347.554,496.327h-4.843c-1.979-9.056-5.888-28.914-5.626-43.27 l17.661-3.382C352.424,462.507,348.849,483.277,347.554,496.327z"/> </g> </g> <g> <g> <circle cx="229.179" cy="221.842" r="7.018"/> </g> </g> <g> <g> <circle cx="282.824" cy="221.842" r="7.018"/> </g> </g> <g> <g> <path d="M297.772,290.124c-3.787-2.098-8.556-0.732-10.654,3.054c-0.084,0.15-7.445,13.08-23.28,16.501v-14.583 c10.243-3.317,17.672-12.947,17.672-24.287c0-14.074-11.443-25.524-25.509-25.524c-14.065,0-25.509,11.45-25.509,25.524 c0,11.338,7.43,20.969,17.672,24.286v14.584c-15.523-3.35-22.894-15.828-23.299-16.536c-2.109-3.76-6.86-5.114-10.635-3.021 c-3.786,2.098-5.153,6.868-3.054,10.654c0.575,1.038,14.431,25.405,44.825,25.405c30.393,0,44.25-24.367,44.825-25.405 C302.925,296.992,301.558,292.222,297.772,290.124z M256.001,280.661c-5.423,0-9.836-4.419-9.836-9.85 c0-5.431,4.413-9.85,9.836-9.85c5.423,0,9.836,4.419,9.836,9.85C265.837,276.242,261.424,280.661,256.001,280.661z"/> </g> </g> </g>
</svg>