<svg xmlns="http://www.w3.org/2000/svg" viewBox="0 0 644.22 131.65"><defs><style>.cls-1{fill:#fff;}.cls-2{fill:#f2f2f2;}.cls-3{fill:#c70039;}.cls-4{fill:#6deae3;}</style></defs><g id="Layer_2" data-name="Layer 2"><g id="Layer_1-2" data-name="Layer 1"><path class="cls-1" d="M166.32,15.26A8.38,8.38,0,0,0,159,19.11q-2.62,3.84-2.63,10.6,0,14.06,10.69,14a21.89,21.89,0,0,0,6.26-.9,60.93,60.93,0,0,0,6.09-2.17V51.81a33.68,33.68,0,0,1-13.78,2.7q-11,0-16.9-6.39t-5.88-18.48a29.43,29.43,0,0,1,2.85-13.28,20.43,20.43,0,0,1,8.19-8.81,24.76,24.76,0,0,1,12.57-3.08A34.69,34.69,0,0,1,181.54,7.9l-4,10.36a43,43,0,0,0-5.39-2.13A18.79,18.79,0,0,0,166.32,15.26Z"></path><path class="cls-1" d="M201.71,36.13V53.85H188.56V5.17H204.5q19.84,0,19.85,14.38,0,8.46-8.26,13.09l14.18,21.21H215.36L205,36.13Zm0-9.88h2.46q6.9,0,6.89-6.1,0-5-6.76-5h-2.59Z"></path><path class="cls-1" d="M279.29,29.44q0,12.29-6,18.68t-17.64,6.39q-11.46,0-17.57-6.42T232,29.38q0-12.15,6.07-18.56t17.66-6.41q11.63,0,17.62,6.36T279.29,29.44Zm-33.49,0q0,14.11,9.82,14.12,5,0,7.41-3.43t2.41-10.69q0-7.29-2.45-10.77a8.35,8.35,0,0,0-7.31-3.48Q245.8,15.19,245.8,29.44Z"></path><path class="cls-1" d="M319.84,39.06a14.36,14.36,0,0,1-2.3,8,14.91,14.91,0,0,1-6.63,5.46,24.51,24.51,0,0,1-10.15,1.95,41.54,41.54,0,0,1-8.16-.68,30.61,30.61,0,0,1-6.85-2.38V39.73a38.65,38.65,0,0,0,7.82,3A29.2,29.2,0,0,0,301,43.82a7.22,7.22,0,0,0,4.29-1,3.13,3.13,0,0,0,1.37-2.61,2.92,2.92,0,0,0-.55-1.75,6.48,6.48,0,0,0-1.77-1.52q-1.22-.76-6.47-3.13a30.82,30.82,0,0,1-7.14-4.19A12.78,12.78,0,0,1,287.23,25a15.4,15.4,0,0,1-1.15-6.23A12.46,12.46,0,0,1,291,8.24q4.9-3.76,13.45-3.77A37.78,37.78,0,0,1,319.84,8l-4,10.15Q309,15,304,15a6.14,6.14,0,0,0-3.73.9,2.74,2.74,0,0,0-1.16,2.23,3.22,3.22,0,0,0,1.48,2.57,57.51,57.51,0,0,0,8,4.13q6.3,2.82,8.74,6.07A13.22,13.22,0,0,1,319.84,39.06Z"></path><path class="cls-1" d="M359.8,39.06a14.44,14.44,0,0,1-2.29,8,15,15,0,0,1-6.63,5.46,24.56,24.56,0,0,1-10.16,1.95,41.43,41.43,0,0,1-8.15-.68,30.68,30.68,0,0,1-6.86-2.38V39.73a39.11,39.11,0,0,0,7.82,3A29.26,29.26,0,0,0,341,43.82a7.23,7.23,0,0,0,4.3-1,3.12,3.12,0,0,0,1.36-2.61,2.85,2.85,0,0,0-.55-1.75,6.27,6.27,0,0,0-1.76-1.52q-1.21-.76-6.48-3.13a31.26,31.26,0,0,1-7.14-4.19A13,13,0,0,1,327.19,25,15.57,15.57,0,0,1,326,18.72a12.47,12.47,0,0,1,4.9-10.48q4.89-3.76,13.45-3.77A37.74,37.74,0,0,1,359.8,8l-4,10.15Q348.95,15,344,15a6.12,6.12,0,0,0-3.73.9,2.73,2.73,0,0,0-1.17,2.23,3.24,3.24,0,0,0,1.49,2.57,56.27,56.27,0,0,0,8,4.13q6.28,2.82,8.73,6.07A13.15,13.15,0,0,1,359.8,39.06Z"></path><path class="cls-1" d="M367.74,5.17h17q9.93,0,14.74,2.95t4.81,9.17a11.58,11.58,0,0,1-2.1,7A9.34,9.34,0,0,1,396.63,28v.33a11.35,11.35,0,0,1,6.56,4,12.07,12.07,0,0,1,2,7.26,12.42,12.42,0,0,1-5,10.43c-3.31,2.55-7.84,3.82-13.56,3.82H367.74Zm13.14,18.68h4a7.17,7.17,0,0,0,4.38-1.17,4,4,0,0,0,1.54-3.46q0-4.1-6.19-4.09h-3.7Zm0,9.62V43.69h4.63q6.17,0,6.16-5.19A4.46,4.46,0,0,0,390,34.77a7.53,7.53,0,0,0-4.77-1.3Z"></path><path class="cls-1" d="M458.88,29.44q0,12.29-6,18.68t-17.65,6.39q-11.44,0-17.56-6.42t-6.11-18.71q0-12.15,6.07-18.56t17.66-6.41q11.63,0,17.62,6.36T458.88,29.44Zm-33.49,0q0,14.11,9.82,14.12,5,0,7.41-3.43T445,29.44q0-7.29-2.45-10.77a8.34,8.34,0,0,0-7.31-3.48Q425.4,15.19,425.39,29.44Z"></path><path class="cls-1" d="M480.75,36.13V53.85H467.6V5.17h15.95q19.84,0,19.84,14.38,0,8.46-8.26,13.09l14.19,21.21H494.4L484.08,36.13Zm0-9.88h2.47q6.88,0,6.88-6.1,0-5-6.75-5h-2.6Z"></path><path class="cls-1" d="M556,28.48q0,12.18-6.71,18.77t-18.86,6.6H514.63V5.17h16.85q11.71,0,18.09,6T556,28.48Zm-13.65.46q0-6.69-2.65-9.92c-1.77-2.15-4.44-3.23-8-3.23h-3.83V43.06h2.93c4,0,6.92-1.16,8.79-3.48S542.3,33.72,542.3,28.94Z"></path><path class="cls-1" d="M593.29,53.85H564.4V5.17h28.89V15.73H577.54v7.65h14.59V33.94H577.54v9.19h15.75Z"></path><path class="cls-1" d="M615.65,36.13V53.85H602.5V5.17h16q19.84,0,19.84,14.38,0,8.46-8.26,13.09l14.19,21.21H629.3L619,36.13Zm0-9.88h2.46q6.9,0,6.89-6.1,0-5-6.75-5h-2.6Z"></path><path class="cls-1" d="M380.14,95.5q-7.2,0-11.18-3.83t-4-10.9c0-4.87,1.22-8.6,3.69-11.21s6-3.9,10.53-3.9q6.51,0,10.06,3.39t3.55,9.79v4.42H375a4.9,4.9,0,0,0,1.76,3.79,6.92,6.92,0,0,0,4.55,1.38,22,22,0,0,0,4.82-.5,24,24,0,0,0,4.77-1.69v7.15A17.44,17.44,0,0,1,386.09,95,33,33,0,0,1,380.14,95.5Zm-.58-23.07a4.14,4.14,0,0,0-2.94,1.1A5.22,5.22,0,0,0,375.23,77h8.55a5,5,0,0,0-1.18-3.33A3.91,3.91,0,0,0,379.56,72.43Z"></path><path class="cls-1" d="M405.36,95l-11-28.82h10.38l4.89,17,.1.44q.08.3.15.72c.05.28.1.58.14.89a5.57,5.57,0,0,1,.07.88h.17a10.48,10.48,0,0,1,.46-2.88l5.12-17.09H426.2L415.21,95Z"></path><path class="cls-1" d="M442.72,95.5q-7.2,0-11.19-3.83t-4-10.9q0-7.3,3.69-11.21t10.53-3.9q6.53,0,10.07,3.39t3.54,9.79v4.42H437.6a4.94,4.94,0,0,0,1.77,3.79,6.91,6.91,0,0,0,4.54,1.38,21.89,21.89,0,0,0,4.82-.5,23.52,23.52,0,0,0,4.77-1.69v7.15A17.27,17.27,0,0,1,448.67,95,33,33,0,0,1,442.72,95.5Zm-.59-23.07a4.17,4.17,0,0,0-2.94,1.1A5.17,5.17,0,0,0,437.81,77h8.55a5,5,0,0,0-1.19-3.33A3.9,3.9,0,0,0,442.13,72.43Z"></path><path class="cls-1" d="M479.3,95V79.27a9.06,9.06,0,0,0-.82-4.34,2.83,2.83,0,0,0-2.66-1.46,3.84,3.84,0,0,0-3.64,2q-1.12,2-1.12,6.89V95h-9.95V66.17h7.51l1.24,3.56h.59a7.81,7.81,0,0,1,3.52-3,12.44,12.44,0,0,1,5.18-1,9.81,9.81,0,0,1,7.44,2.77q2.66,2.77,2.66,7.81V95Z"></path><path class="cls-1" d="M509.83,87.64a14.85,14.85,0,0,0,4.81-1V93.9a18.89,18.89,0,0,1-3.84,1.23,21.31,21.31,0,0,1-4.26.37q-5,0-7.22-2.45T497.1,85.5V73.62h-3.48v-4L498,66.45l2.58-6.06h6.51v5.78h7.07v7.45h-7.07V84.84C507.13,86.71,508,87.64,509.83,87.64Z"></path><path class="cls-1" d="M519.88,90.77a4.62,4.62,0,0,1,1.39-3.61,5.75,5.75,0,0,1,4-1.28,5.43,5.43,0,0,1,3.87,1.28,4.71,4.71,0,0,1,1.35,3.61,4.59,4.59,0,0,1-1.39,3.57,5.4,5.4,0,0,1-3.83,1.29,5.86,5.86,0,0,1-4-1.27A4.55,4.55,0,0,1,519.88,90.77Z"></path><path class="cls-1" d="M549,95.5q-7.08,0-10.73-3.82t-3.65-11q0-7.17,4-11.12c2.63-2.63,6.36-3.94,11.22-3.94a21,21,0,0,1,9.43,2.19l-2.92,7.35A30.44,30.44,0,0,0,553,73.94a10.88,10.88,0,0,0-3.18-.47,4.3,4.3,0,0,0-3.74,1.88,9.11,9.11,0,0,0-1.33,5.32q0,6.92,5.12,6.92A15.42,15.42,0,0,0,558.24,85V93A16.38,16.38,0,0,1,549,95.5Z"></path><path class="cls-1" d="M591.28,80.52q0,7.07-3.8,11t-10.64,4q-6.57,0-10.45-4t-3.88-10.94q0-7,3.8-11T577,65.66a15.24,15.24,0,0,1,7.5,1.8,12.38,12.38,0,0,1,5,5.18A16.71,16.71,0,0,1,591.28,80.52Zm-18.67,0a12.85,12.85,0,0,0,1,5.66,3.47,3.47,0,0,0,3.34,1.94,3.36,3.36,0,0,0,3.27-1.94,13.38,13.38,0,0,0,.95-5.66,12.55,12.55,0,0,0-1-5.58,3.4,3.4,0,0,0-3.3-1.88,3.46,3.46,0,0,0-3.29,1.87A12.34,12.34,0,0,0,572.61,80.52Z"></path><path class="cls-1" d="M632.3,95V79.32a9.34,9.34,0,0,0-.81-4.39A2.69,2.69,0,0,0,629,73.47a3.55,3.55,0,0,0-3.36,2,13.39,13.39,0,0,0-1.06,6.13V95h-10V79.32a9.82,9.82,0,0,0-.76-4.39,2.59,2.59,0,0,0-2.47-1.46,3.54,3.54,0,0,0-3.4,2.09c-.72,1.38-1.08,3.66-1.08,6.81V95h-9.94V66.17h7.5l1.25,3.56h.59a7.47,7.47,0,0,1,3.32-3,11.31,11.31,0,0,1,4.94-1q6.24,0,8.75,3.79h.79a8.19,8.19,0,0,1,3.4-2.79,11.29,11.29,0,0,1,4.79-1c3.42,0,5.93.87,7.56,2.62s2.45,4.4,2.45,8V95Z"></path><path class="cls-2" d="M113.05,63.28,128.42,90a4.23,4.23,0,1,0,7.4-4.09l-15.36-26.7a4.23,4.23,0,1,0-7.41,4.09"></path><path class="cls-2" d="M86.15,91.64A4.24,4.24,0,0,0,91.9,90l15.37-26.7a4.23,4.23,0,1,0-7.4-4.09L84.5,85.89a4.24,4.24,0,0,0,1.65,5.75"></path><path class="cls-3" d="M149.63,86.19H140a8.11,8.11,0,0,1-15,5.68l0,.06-3.31-5.74H98.59l-3.28,5.69h0l0,0a8.14,8.14,0,0,1-11,3.13,8,8,0,0,1-4-8.86H70.72a4.25,4.25,0,1,0,0,8.49h1.36l8.5,32.14a6.86,6.86,0,0,0,6.28,4.83h46.63a6.87,6.87,0,0,0,6.29-4.83c9.24-34.7,8.4-31.43,8.49-32.14h1.36a4.25,4.25,0,1,0,0-8.49m-49.27,33a2.89,2.89,0,0,1-5.78,0V105.77a2.89,2.89,0,1,1,5.78,0Zm12.92,0a2.89,2.89,0,1,1-5.77,0V105.77a2.89,2.89,0,1,1,5.77,0Zm12.93,0a2.89,2.89,0,1,1-5.77,0V105.77a2.89,2.89,0,1,1,5.77,0Z"></path><path class="cls-4" d="M66.13,70.69V39.59H87.52c.6,2.25,1.13,4.59,1.55,7a2.93,2.93,0,1,0,5.78-1c-.36-2.07-.81-4.05-1.28-6l18.18-.13a53.75,53.75,0,0,1,3,7.25,4.72,4.72,0,1,0,9-2.91,63.39,63.39,0,1,0-72.77,81.7c2.95.63,8.88-.73,8.88-6.39a7,7,0,0,0-3.22-5.84C50.22,109,45,101.92,41.4,93.09H53.08a2.94,2.94,0,0,0,0-5.87H39.32A81.51,81.51,0,0,1,36,66.34H80.41a2.94,2.94,0,0,0,0-5.87H36a92.71,92.71,0,0,1,3-20.88H60.26v31.1a2.94,2.94,0,1,0,5.87,0m0-37v-23c7.88,1.74,15.07,10.37,19.58,23Zm42.33,0H91.91c-3-9.28-7.37-16.78-12.56-21.87a53.7,53.7,0,0,1,29.11,21.87M46.68,12.11c-5.11,5.12-9.33,12.57-12.24,21.61H18.36A54.12,54.12,0,0,1,46.68,12.11M50,115.66A53.69,53.69,0,0,1,18.34,93.09H35c3.45,9.37,8.58,17.18,15,22.57M33.17,87.22,15,87.27A54,54,0,0,1,9.56,66.34H30.1a88.34,88.34,0,0,0,3.07,20.88M30.11,60.47H9.58a53.53,53.53,0,0,1,5.47-20.92l17.72,0a100.78,100.78,0,0,0-2.66,20.88M40.72,33.72c4.44-12.49,11.53-21.29,19.54-23v23Z"></path></g></g></svg>