<?xml version="1.0" encoding="UTF-8"?>
<svg viewBox="0 0 256 256" version="1.1" xmlns="http://www.w3.org/2000/svg" style="fill-rule:evenodd;clip-rule:evenodd;stroke-linecap:round;stroke-linejoin:round;">
    <g transform="matrix(0.333333,0,0,0.333333,37.583333,37.083333)">
        <path d="M128,71.5C159.183,71.5 184.5,96.817 184.5,128C184.5,159.183 159.183,184.5 128,184.5C96.817,184.5 71.5,159.183 71.5,128C71.5,96.817 96.817,71.5 128,71.5ZM128,104.5C115.03,104.5 104.5,115.03 104.5,128C104.5,140.97 115.03,151.5 128,151.5C140.97,151.5 151.5,140.97 151.5,128C151.5,115.03 140.97,104.5 128,104.5Z" style="fill:#3AA99F;"/>
    </g>
    <g transform="matrix(0.333333,0,0,0.333333,37.583333,37.083333)">
        <path d="M174.866,194.259C182.45,189.218 192.7,191.282 197.741,198.866C202.782,206.45 200.718,216.7 193.134,221.741C175.432,233.507 150.846,240.5 128,240.5C66.284,240.5 15.5,189.716 15.5,128C15.5,66.284 66.284,15.5 128,15.5C189.716,15.5 240.5,66.284 240.5,128C240.5,160.538 225.46,184.5 196,184.5C166.54,184.5 151.5,160.538 151.5,128L151.5,88C151.5,78.893 158.893,71.5 168,71.5C177.107,71.5 184.5,78.893 184.5,88L184.5,128C184.5,134.408 185.237,140.363 187.279,145.164C188.851,148.858 191.536,151.5 196,151.5C200.464,151.5 203.149,148.858 204.721,145.164C206.763,140.363 207.5,134.408 207.5,128C207.5,84.388 171.612,48.5 128,48.5C84.388,48.5 48.5,84.388 48.5,128C48.5,171.612 84.388,207.5 128,207.5C144.415,207.5 162.148,202.713 174.866,194.259Z" style="fill:#3AA99F;"/>
    </g>
    <g transform="matrix(1,0,0,1,0,-0.25)">
        <circle cx="176" cy="80" r="32" style="fill:none;stroke:#FFFCF0;stroke-width:12px;"/>
    </g>
    <circle cx="80" cy="176" r="32" style="fill:none;stroke:#FFFCF0;stroke-width:12px;"/>
    <path d="M176,144L176,208" style="fill:none;fill-rule:nonzero;stroke:#8B7EC8;stroke-width:11px;"/>
    <path d="M208,176L144,176" style="fill:none;fill-rule:nonzero;stroke:#8B7EC8;stroke-width:11px;"/>
</svg>
