<?xml version="1.0" encoding="UTF-8"?>
<svg id="Layer_2" data-name="Layer 2" xmlns="http://www.w3.org/2000/svg" viewBox="0 0 78.31 55.94">
  <g id="Layer_1-2" data-name="Layer 1">
    <path fill="#3B82F6" d="M55.93,50.34h-5.59v-11.18h5.59v11.18ZM55.93,50.34v5.6h16.79v-5.6h-16.79ZM72.72,50.34h5.59v-16.78h-5.59s0,16.78,0,16.78ZM55.93,22.38v5.59h5.6v-5.59h-5.6ZM61.53,27.97v5.59h11.19v-5.59h-11.19ZM72.72,5.59v22.38h5.59V5.59h-5.59ZM72.72,5.59V0h-16.79v5.59h16.79ZM55.93,5.59h-5.59v11.19h5.59V5.59ZM22.37,50.34h5.6v-11.18h-5.6v11.18ZM50.34,16.78h-5.59v22.38h5.59v-22.38ZM44.75,16.78v-5.59h-11.19v5.59h11.19ZM33.56,39.16v5.59h11.19v-5.59h-11.19ZM33.56,16.78h-5.59v22.38h5.59v-22.38ZM22.37,16.78h5.6V5.59h-5.6v11.19ZM5.59,50.34v5.6h16.78v-5.6H5.59ZM16.78,33.56v-5.59h-5.59v5.59h5.59ZM22.37,5.59V0H5.59v5.59h16.78ZM11.19,22.38h-5.6v5.59h5.6v-5.59ZM5.59,27.97H0v22.37h5.59v-22.37ZM5.59,5.59H0v16.79h5.59V5.59Z"/>
  </g>
</svg>
