<?xml version="1.0" encoding="UTF-8"?>
<svg xmlns="http://www.w3.org/2000/svg" viewBox="0 0 144 144">
  <path fill="#FFFFFF" d="m72,119.9c-2.6,0 -4.8,-2.1 -4.8,-4.8l0,-86.2c0,-2.6 2.1,-4.8 4.8,-4.8c2.6,0 4.8,2.1 4.8,4.8l0,86.2c0,2.6 -2.2,4.8 -4.8,4.8z"/>
  <path fill="#FFFFFF" d="m52,76.8l-23,0c-2.6,0 -4.8,-2.1 -4.8,-4.8s2.1,-4.8 4.8,-4.8l23,0c2.6,0 4.8,2.1 4.8,4.8s-2.2,4.8 -4.8,4.8z"/>
  <path fill="#FFFFFF" d="m115.1,76.8l-23.1,0c-2.6,0 -4.8,-2.1 -4.8,-4.8s2.1,-4.8 4.8,-4.8l23,0c2.6,0 4.8,2.1 4.8,4.8s-2.1,4.8 -4.7,4.8z"/>
  <path fill="#FFFFFF" d="m72,144c-39.7,0 -72,-32.3 -72,-72s32.3,-72 72,-72s72,32.3 72,72s-32.3,72 -72,72zm0,-134.4c-34.4,0 -62.4,28 -62.4,62.4s28,62.4 62.4,62.4s62.4,-28 62.4,-62.4s-28,-62.4 -62.4,-62.4z"/>
</svg>
