<svg id="Layer_1" data-name="Layer 1" xmlns="http://www.w3.org/2000/svg" xmlns:xlink="http://www.w3.org/1999/xlink" viewBox="0 0 360 327.18"><defs><style>.cls-1{fill:none;}.cls-2{fill:#fff;}.cls-3{fill:#c2c2c2;}.cls-4{fill:#b8b8b8;}.cls-5{fill:#8c8c8c;}.cls-6{fill:#666;}.cls-7{clip-path:url(#clip-path);}.cls-8{clip-path:url(#clip-path-2);}</style><clipPath id="clip-path"><path class="cls-1" d="M220.23,164.73s-6.05-1.9-13.92-3.84c-5.58-1.37-11.15,1.18-11.15,1.18l1.47,6.1s11.07,2.11,18.76.47c6-1.28,4.84-3.91,4.84-3.91"/></clipPath><clipPath id="clip-path-2"><path class="cls-1" d="M142.52,163.73s6-.9,13.91-2.83c5.58-1.37,11.32,1.25,11.32,1.25l-1.63,6s-11.07,2.11-18.76.47c-6-1.28-4.84-4.92-4.84-4.92"/></clipPath></defs><title>AVATARS2</title><path class="cls-2" d="M261.17,163.94a11.69,11.69,0,0,0-2.19-7,6.76,6.76,0,0,0-1.92-1.88,4.12,4.12,0,0,0-2.84-.62c0.25-2.29.57-5.08,0.85-8.22,0.42-4.66.78-10.07,0.78-15.77a102.67,102.67,0,0,0-1.28-16.91c-1.43-8.45-4.23-16.66-9.55-23.11a31.2,31.2,0,0,0-9.95-8,36.68,36.68,0,0,0-12.87-3.66,18.38,18.38,0,0,0,.15-2.32,19.58,19.58,0,0,0-2.42-9.28,33.17,33.17,0,0,0-8.14-9.59l-0.19-.16-0.21-.12a39.19,39.19,0,0,0-11.56-4.08,73,73,0,0,0-14.33-1.31,120.35,120.35,0,0,0-33.65,5.2,118.87,118.87,0,0,0-33.15,15.5l-0.09.06-0.07.06a40.2,40.2,0,0,0-9.18,10.63A62.35,62.35,0,0,0,102,103.28a106.49,106.49,0,0,0-2,20.93A130.18,130.18,0,0,0,101.54,144c0.43,2.7.9,5,1.37,6.87,0.24,0.93.47,1.73,0.71,2.43,0.16,0.46.32,0.87,0.5,1.25A4.73,4.73,0,0,0,103,155a6.47,6.47,0,0,0-2,1.9,11.69,11.69,0,0,0-2.19,7,27.85,27.85,0,0,0,1.53,7.94,24.62,24.62,0,0,1,1.42,6.52c0,0.14,0,.27,0,0.41h0c0,0.22,0,.44,0,0.66a12.46,12.46,0,0,0,1.14,5.12c1.18,2.65,3.27,5.47,6.53,8.88a170.42,170.42,0,0,0,13.73,12.4l0.31,0.26,3.7,15.64v0a83.16,83.16,0,0,0,9.4,24.49A63.2,63.2,0,0,0,152,264.37a51.52,51.52,0,0,0,21.93,10.08q1.87,0.38,3.83.63l1.33,0.17,0-.16h5.17A51.87,51.87,0,0,0,210,264.37c10.1-7.94,16.27-18.6,19.95-27.26a78.66,78.66,0,0,0,4.85-15.36l3.7-15.64,0.32-.26c7.86-6.54,12.67-11.41,15.56-15.48a22.36,22.36,0,0,0,3-5.63,15,15,0,0,0,.83-5c0-.33,0-0.65,0-1h0c0-.13,0-0.26,0-0.4a24.53,24.53,0,0,1,1.42-6.52A27.91,27.91,0,0,0,261.17,163.94Z"/><path class="cls-3" d="M179.07,275.26l-1.33-.17c-41.71-5.44-50.48-52.91-50.57-53.39l-13.72-57.91,2.62-.62,14.74,57c0.1,0.54,11.62,45.93,47.28,52.26l1.33,0.17-0.35,2.67"/><path class="cls-4" d="M186.49,63.7c-19.19,0-45,7.37-63.58,20.13-24.33,16.72-18,58.44-14.18,71.63a11.14,11.14,0,0,1,.93.63,20.21,20.21,0,0,1,3.34,3.33,37.31,37.31,0,0,1,2.71,3.83l0.35-.08,4.46,17.24c0.16-7.59,0-27.29,2.59-27.29,1,0,2.35,2.89,4.27,10.47,1.6-10.71,6.09-25.53,9.52-25.53,1.3,0,2.45,2.13,3.23,7.42,11.09-39.26,26.11-51.11,31.58-51.11,1.9,0,2.64,1.43,1.67,3.63a115.49,115.49,0,0,1,13.71-.88c54.81,0,49.3,48,54,82.71,1.3-6.12,2.65-11.36,4.31-14.63l0.2-.84,0-.1s0.43-1,1.15-2.39c0.3-.57.65-1.2,1.05-1.85,1.59-17.22,4.66-66.64-30.65-71.3,1.23-5.47-.27-12.2-8.78-19.36-4.58-3.86-12.47-5.67-22-5.67"/><path class="cls-5" d="M116.07,163.17l-0.35.08c0.33,0.53.52,0.86,0.52,0.88l0.09,0.16,4.15,17.52c0-.4,0-0.88,0-1.41l-4.46-17.24"/><path class="cls-2" d="M209.36,94s22.71-15.79.69-34.31c-17.91-10.16-60.66-4.85-89.83,15.19-25.41,20.41-16.58,73.57-13.49,79,7.83,1.45,7.24,17.05,10.91,24.48,0.4-7.18-1.69-64.54,8.8-27.06,2.32-15.51,11.2-39.62,14.18-19.42,14-60.06,41.47-47.25,37.51-38.28C190.13,89.69,196.62,88.9,209.36,94Z"/><path class="cls-6" d="M209.36,94l1.53,2.21a31.94,31.94,0,0,0,5.68-5.36,27.27,27.27,0,0,0,3.93-6.14,19.78,19.78,0,0,0,1.85-8.21,19.58,19.58,0,0,0-2.42-9.28,33.17,33.17,0,0,0-8.14-9.59l-0.19-.16-0.21-.12a39.19,39.19,0,0,0-11.56-4.08,73,73,0,0,0-14.33-1.31,120.35,120.35,0,0,0-33.65,5.2,118.87,118.87,0,0,0-33.15,15.5l-0.09.06-0.07.06a40.2,40.2,0,0,0-9.18,10.63A62.35,62.35,0,0,0,102,103.28a106.49,106.49,0,0,0-2,20.93A130.18,130.18,0,0,0,101.54,144c0.43,2.7.9,5,1.37,6.87,0.24,0.93.47,1.73,0.71,2.43a11,11,0,0,0,.78,1.85l0.62,1.09,1.23,0.23a3.11,3.11,0,0,1,1.4.64,8.17,8.17,0,0,1,2.21,3.35,57.19,57.19,0,0,1,2.48,9.25c0.37,1.71.75,3.44,1.2,5.09a26.65,26.65,0,0,0,1.7,4.69l4.52,9.17,0.57-10.21c0-.59,0-1.36.06-2.32s0-2.11,0-3.4c0-.95,0-2,0-3.05,0-6,0-13.68.43-19.82a54.93,54.93,0,0,1,.87-7.48,7.39,7.39,0,0,1,.5-1.64l0,0h0l-0.94-.62,0.64,0.91a1.16,1.16,0,0,0,.3-0.28l-0.94-.62,0.64,0.91-1.11-1.58v1.92a2,2,0,0,0,1.11-.34l-1.11-1.58v0.18l-1,1.48a1.78,1.78,0,0,0,1,.26v-1.74l-1,1.48,0.45-.69-0.55.62,0.11,0.08,0.45-.69-0.55.62,0.13-.14-0.13.13h0l0.13-.14-0.13.13,0,0a5.69,5.69,0,0,1,.61,1,29.88,29.88,0,0,1,1.52,3.68c0.58,1.65,1.23,3.74,1.94,6.28l3.39,12.11,1.86-12.44a94,94,0,0,1,4.4-17.27,34.69,34.69,0,0,1,2.85-6.18,6.76,6.76,0,0,1,1.07-1.38l0.12-.1h0l-0.44-.81v0.89a1,1,0,0,0,.44-0.09l-0.44-.81v-0.41l-0.5,1.21a1.34,1.34,0,0,0,.5.1v-1.3l-0.5,1.21,0.35-.85-0.59.72a1,1,0,0,0,.24.14l0.35-.85-0.59.72,0.17-.21-0.2.19,0,0,0.17-.21-0.2.19a1.74,1.74,0,0,1,.22.35,9.35,9.35,0,0,1,.68,1.88,30.52,30.52,0,0,1,.68,3.44l2.07,14,3.21-13.8c4.16-17.9,9.52-29,14.63-35.55a25.81,25.81,0,0,1,7.24-6.63,11.6,11.6,0,0,1,5.74-1.72,6.06,6.06,0,0,1,3.86,1.21,3.4,3.4,0,0,1,.88,1,2.05,2.05,0,0,1,.25,1,1.78,1.78,0,0,1-.16.73L173.27,98,179,96.14A82,82,0,0,1,187,93.88a32,32,0,0,1,6.78-.78c4.18,0,8.52,1,14.58,3.36L209.71,97l1.19-.82L209.36,94l1-2.5c-6.4-2.54-11.51-3.74-16.56-3.74a37.41,37.41,0,0,0-7.9.9A87.07,87.07,0,0,0,177.3,91l0.83,2.56,2.46,1.08a7.17,7.17,0,0,0,.61-2.88,7.43,7.43,0,0,0-.86-3.44,9.17,9.17,0,0,0-3.77-3.75,11.9,11.9,0,0,0-5.73-1.4,16.94,16.94,0,0,0-8.42,2.44c-4.39,2.52-8.87,7.08-13.08,14.39s-8.14,17.43-11.35,31.23l2.62,0.61,2.66-.39a24.26,24.26,0,0,0-1.75-6.69,6.86,6.86,0,0,0-1.59-2.22,4.51,4.51,0,0,0-1.27-.8,4.08,4.08,0,0,0-1.55-.31,4.39,4.39,0,0,0-1.89.44,7.09,7.09,0,0,0-2.35,2,23,23,0,0,0-3,5.06,75.39,75.39,0,0,0-3.68,10.53,98.76,98.76,0,0,0-2.47,11.44l2.66,0.4,2.59-.72a72,72,0,0,0-3.44-10.11,12.89,12.89,0,0,0-1.65-2.79,5.16,5.16,0,0,0-1.17-1.07,3.63,3.63,0,0,0-2-.6,3.41,3.41,0,0,0-1.3.26,3.87,3.87,0,0,0-1.59,1.27,7.93,7.93,0,0,0-1.19,2.61,35.65,35.65,0,0,0-1,5.9c-0.34,3.44-.52,7.57-0.62,11.74s-0.11,8.38-.11,11.94c0,1.09,0,2.11,0,3.05,0,1.29,0,2.42,0,3.35s0,1.66,0,2.07l2.68,0.15,2.41-1.19a29.75,29.75,0,0,1-1.94-6.17c-0.43-1.85-.82-3.84-1.28-5.82a34.91,34.91,0,0,0-2.84-8.49,12.12,12.12,0,0,0-2.65-3.45,8.58,8.58,0,0,0-4.12-2l-0.49,2.64,2.34-1.33a6.47,6.47,0,0,1-.37-0.93,37.73,37.73,0,0,1-1.06-4.09,118.44,118.44,0,0,1-2.24-23.3,92.69,92.69,0,0,1,3.46-26.32A51.28,51.28,0,0,1,114,86.16a34.82,34.82,0,0,1,7.94-9.23l-1.68-2.1,1.52,2.22a113.52,113.52,0,0,1,31.64-14.78,115,115,0,0,1,32.11-5,67.67,67.67,0,0,1,13.27,1.2,33.9,33.9,0,0,1,10,3.48l1.33-2.34-1.73,2.06a27.85,27.85,0,0,1,6.86,8A14.18,14.18,0,0,1,217,76.46a14.41,14.41,0,0,1-1.37,6,23.84,23.84,0,0,1-4.88,6.8,28,28,0,0,1-2.1,1.9l-0.61.48-0.15.11,0,0,0.1,0.15-0.1-.15h0l0.1,0.15-0.1-.15L209.36,94l1-2.5Z"/><path class="cls-2" d="M215,94.75s4.57-4.06,5.83-13.4c41.14,3.31,31.95,60.12,30.42,75.81-2.91,2.16-5.81,3.67-7.75,12.76C242.79,144.28,239.47,97.45,215,94.75Z"/><path class="cls-6" d="M215,94.75l1.78,2a16.9,16.9,0,0,0,3-3.83,29.46,29.46,0,0,0,3.74-11.23l-2.66-.36L220.59,84a29.91,29.91,0,0,1,15.15,5.08A27.15,27.15,0,0,1,243,96.72a45.3,45.3,0,0,1,5.95,15.77,93.67,93.67,0,0,1,1.57,18c0,5.48-.35,10.73-0.76,15.28s-0.9,8.4-1.16,11.15l2.68,0.26-1.6-2.16c-0.68.5-1.45,1-2.28,1.71a14.92,14.92,0,0,0-3.69,4.44,29.58,29.58,0,0,0-2.81,8.2l2.63,0.56,2.69-.07c-0.17-6.44-.51-14.24-1.31-22.37-1.21-12.2-3.42-25.14-7.8-35.56a40.83,40.83,0,0,0-8.53-13.34,23.77,23.77,0,0,0-6-4.36,21.24,21.24,0,0,0-7.26-2.14L215,94.75l1.78,2-1.78-2-0.29,2.67a15.89,15.89,0,0,1,7.06,2.53c3.69,2.39,6.81,6.47,9.32,11.73,3.78,7.88,6.15,18.31,7.57,28.82A278.27,278.27,0,0,1,240.79,170l0.6,22.65,4.72-22.16a30.44,30.44,0,0,1,1.48-5.07,11.07,11.07,0,0,1,2.34-3.78,22.69,22.69,0,0,1,2.9-2.31l1-.71,0.12-1.19c0.25-2.62.74-6.53,1.17-11.18s0.78-10.07.78-15.77a102.67,102.67,0,0,0-1.28-16.91c-1.43-8.45-4.23-16.66-9.55-23.11a31.2,31.2,0,0,0-9.95-8A37.22,37.22,0,0,0,221,78.66l-2.54-.21L218.14,81a24.09,24.09,0,0,1-3,9.19,15,15,0,0,1-1.45,2c-0.18.21-.32,0.36-0.4,0.44l-0.08.08h0l1,1.14-1-1.16,0,0,1,1.14-1-1.16-4.53,4,6,0.67Z"/><path class="cls-6" d="M201.18,232.43v0a15.09,15.09,0,0,1-3.39,4.37,15.64,15.64,0,0,1-10.81,4q-0.66,0-1.35,0h-9.25q-0.5,0-1,0a14.15,14.15,0,0,1-7-1.87,21.52,21.52,0,0,1-6.8-6.41,27.26,27.26,0,0,1-1.7-2.74c-0.19-.35-0.33-0.63-0.42-0.82l-0.1-.22,0-.07-0.27-.62-1.23.54,0.27,0.62a27.3,27.3,0,0,0,4.24,6.44,21,21,0,0,0,5.38,4.45,15.5,15.5,0,0,0,7.67,2q0.53,0,1.07,0l0-.67v0.67h9.16v-0.67l0,0.67q0.73,0,1.44,0a17,17,0,0,0,11.95-4.59,16.07,16.07,0,0,0,3.49-4.62l0.27-.61-1.23-.55-0.27.61h0Z"/><path class="cls-3" d="M169.26,188.75l-0.84.55c-0.53.34-13,8.53-19.84,15.39-2.26,2.26-3.58,5.55-4.16,10.35l-0.12,1h0s4.49-8.72,5.7-9.93c6.72-6.72,19.25-17.37,19.25-17.37h0"/><path class="cls-6" d="M211.56,214.27h0a21.25,21.25,0,0,1-5.7.75,18.23,18.23,0,0,1-7.83-1.66l-0.17-.08-0.18,0c-0.86-.08-1.77-0.12-2.73-0.12a90.82,90.82,0,0,0-14.14,1.52l0.2,1,0.43-1s-2.08-.94-4.76-1.87c-1.34-.47-2.84-0.94-4.32-1.29a19,19,0,0,0-4.27-.6,8.26,8.26,0,0,0-.87,0L167,211l-0.16.08a14.47,14.47,0,0,1-6.21,1.24,27,27,0,0,1-6.57-.9c-0.87-.22-1.59-0.45-2.08-0.62l-0.57-.2-0.14-.05,0,0-1-.39-0.78,2,1,0.39a30.71,30.71,0,0,0,10.19,1.93,16.54,16.54,0,0,0,7.11-1.45l-0.45-.95,0.11,1a6.18,6.18,0,0,1,.65,0,17,17,0,0,1,3.78.55,49.63,49.63,0,0,1,5.93,1.9c0.83,0.32,1.53.6,2,.81l0.57,0.24,0.19,0.09,0.3,0.14,0.33-.06,0.34-.06a87.1,87.1,0,0,1,13.41-1.42c0.9,0,1.75,0,2.52.11l0.1-1-0.45.95a20.32,20.32,0,0,0,8.73,1.87,23,23,0,0,0,6.35-.85l1-.32-0.63-2-1,.32h0Z"/><path class="cls-6" d="M229,148.09a18.42,18.42,0,0,0-8-3.39,32.22,32.22,0,0,0-5.9-.57h-0.6a30.06,30.06,0,0,0-6.19,1.58,34.71,34.71,0,0,0-12.34,7.57l-1,.93,1.87,1.94,1-.93a32.82,32.82,0,0,1,15.45-8.15c0.5-.11.89-0.18,1.15-0.22l0.29,0h0.08l-0.15-1.34,0.06,1.34H215a29.49,29.49,0,0,1,5.38.52,15.83,15.83,0,0,1,6.84,2.84l1,0.85,1.69-2.09-1-.85h0Z"/><path class="cls-6" d="M165.12,168.23l-0.23,0a75,75,0,0,1-11.46.89c-5.79,0-12.63-.75-17.72-3.47l-0.59-.32-0.63,1.19,0.59,0.32c5.44,2.89,12.45,3.63,18.35,3.63a74.81,74.81,0,0,0,11.93-1l0.66-.12-0.24-1.32-0.66.12h0Z"/><path class="cls-3" d="M192.75,188.75s12.53,10.65,19.26,17.37c1.21,1.21,5.7,9.93,5.7,9.93l-0.12-1c-0.58-4.8-1.9-8.09-4.16-10.35-6.87-6.87-19.31-15-19.84-15.39l-0.84-.55"/><path class="cls-6" d="M137,156.09a18.49,18.49,0,0,1,8.06-4.16,20.42,20.42,0,0,1,4.53-.63v-0.95l-0.06.94h0.06v-0.95l-0.06.94h0.17l0.17,0h0a16.91,16.91,0,0,1,2.8-.21,19.5,19.5,0,0,1,5.52.77,14.91,14.91,0,0,1,6,3.4l1,0.92,1.84-2-1-.92a17.6,17.6,0,0,0-7.09-4,22.21,22.21,0,0,0-6.28-.89,19.07,19.07,0,0,0-3.31.26l0.25,1.32,0.08-1.34h-0.1a23,23,0,0,0-5.18.71,21.16,21.16,0,0,0-9.23,4.79l-1,.91,1.82,2,1-.91h0Z"/><path class="cls-6" d="M191.85,191l0.42-.23-0.42.23h0l0.42-.23-0.42.23a19.85,19.85,0,0,1,1,2.28,13.2,13.2,0,0,1,1,4.41,4,4,0,0,1-.48,2.07,2.11,2.11,0,0,1-.64.73,0.64,0.64,0,0,1-.36.11,1.46,1.46,0,0,1-.55-0.13,4,4,0,0,1-1-.61l-0.31-.28-0.07-.07h0l-0.43.4,0.43-.39h0l-0.43.4,0.43-.39-1.72-1.91-1.06,2.34,0.5,0.23-0.49-.23h0l0.5,0.23-0.49-.23a8.63,8.63,0,0,1-1.65,2.23,7.28,7.28,0,0,1-2,1.4,6.42,6.42,0,0,1-2.78.61H181a6.41,6.41,0,0,1-2.86-.65,7.83,7.83,0,0,1-2.71-2.27,8.82,8.82,0,0,1-.66-1l-0.15-.28,0-.06h0l-1.06-2.34-1.72,1.91,0.72,0.65-0.71-.66h0l0.72,0.65-0.71-.66-0.05.05a5.08,5.08,0,0,1-.84.67,2.1,2.1,0,0,1-1,.38,0.64,0.64,0,0,1-.36-0.11,2.11,2.11,0,0,1-.64-0.73,4,4,0,0,1-.48-2.07,13.28,13.28,0,0,1,1-4.47c0.26-.66.51-1.23,0.7-1.62l0.23-.45,0.06-.11v0h0l-0.49-.27,0.49,0.27h0l-0.49-.27,1.31-1.2-2.94-1.63a29.85,29.85,0,0,0-2,4.11,16.46,16.46,0,0,0-1.22,5.68,7.32,7.32,0,0,0,1,3.8,5.42,5.42,0,0,0,1.74,1.85,4,4,0,0,0,2.14.62,4.78,4.78,0,0,0,1.84-.39,7.3,7.3,0,0,0,1.83-1.13,7.59,7.59,0,0,0,.73-0.69l-1.25-1.12-1.53.69a11.66,11.66,0,0,0,2.21,3.1,10.72,10.72,0,0,0,2.93,2.13,9.8,9.8,0,0,0,4.33,1h0.27a9.8,9.8,0,0,0,4.33-1,11.17,11.17,0,0,0,3.9-3.24,10.86,10.86,0,0,0,1.24-2l-1.53-.69L188,201.72a8,8,0,0,0,1.23,1.07,6.88,6.88,0,0,0,1.34.75,4.79,4.79,0,0,0,1.84.39,4,4,0,0,0,2.14-.62,5.41,5.41,0,0,0,1.74-1.85,7.32,7.32,0,0,0,1-3.8A16.46,16.46,0,0,0,196,192a22.7,22.7,0,0,0-1.2-2.64L194,187.86,191,189.5l0.82,1.47h0Z"/><path class="cls-6" d="M211.61,214.66c-5.78,2.51-8.52,6.32-11,9.33a17.34,17.34,0,0,1-3.75,3.73,9.31,9.31,0,0,1-5.38,1.48,21.37,21.37,0,0,1-4.7-.6l-0.07,0h-11.4v0.67l0.1-.67a34.18,34.18,0,0,1-10.08-2.83,18.2,18.2,0,0,1-7.23-6.53c-1.8-2.54-3.54-5.41-6.82-8.2l-0.51-.44-0.87,1,0.51,0.44c4.15,3.52,5.69,7.19,8.56,10.49a17.92,17.92,0,0,0,5.77,4.42,35.49,35.49,0,0,0,10.48,3h11.42v-0.67l-0.15.66a22.69,22.69,0,0,0,5,.64,10.67,10.67,0,0,0,6.12-1.7c2.39-1.59,4-4,6-6.36a22.36,22.36,0,0,1,8.54-6.59l0.62-.27-0.54-1.23-0.62.27h0Z"/><path class="cls-6" d="M175.5,164.51a6.82,6.82,0,0,0-2.34-3.48c-1.88-1.61-5.17-3.06-10.64-3.06s-13.21,1.42-24.25,5.56l-0.2.08-0.17.14,0.51,0.63-0.5-.63h0l0.51,0.63-0.5-.63h0a8,8,0,0,1-4.62,1.3,10.65,10.65,0,0,1-1.45-.1l-1.33-.18-0.37,2.66,1.33,0.18a13.39,13.39,0,0,0,1.81.13,11.53,11.53,0,0,0,4.57-.91,7.9,7.9,0,0,0,1.74-1l-0.84-1,0.47,1.26c10.84-4.07,18.29-5.39,23.3-5.39s7.57,1.29,8.9,2.41a5.18,5.18,0,0,1,1.23,1.49,3.11,3.11,0,0,1,.19.43l0,0.09h0l0.76-.19-0.77.16v0l0.76-.19-0.49,1.48,2.63-.56Z"/><path class="cls-6" d="M189.41,165.06l-0.79-.17,0.78,0.19v0l-0.79-.17,0.78,0.19h0a4.63,4.63,0,0,1,1.71-2.22c1.38-1.06,3.92-2.2,8.64-2.2,5,0,12.46,1.32,23.3,5.39l0.47-1.26-0.84,1a7.89,7.89,0,0,0,1.74,1,11.52,11.52,0,0,0,4.57.91,13.32,13.32,0,0,0,1.81-.13l1.33-.18-0.36-2.66-1.33.18a10.76,10.76,0,0,1-1.45.1,8.83,8.83,0,0,1-3.5-.69,6.62,6.62,0,0,1-.88-0.46l-0.2-.13,0,0h0l-0.49.63,0.5-.62h0l-0.49.63,0.5-.62-0.17-.14-0.2-.08c-11-4.14-18.77-5.55-24.25-5.56S191,159.41,189.11,161a6.82,6.82,0,0,0-2.33,3.48l-0.28,1.31,2.63,0.56,0.28-1.31h0Z"/><path class="cls-6" d="M238.84,205.85c7.86-6.54,12.67-11.41,15.56-15.48a22.36,22.36,0,0,0,3-5.63,15,15,0,0,0,.83-5c0-.33,0-0.65,0-1h0c0-.13,0-0.26,0-0.4a24.53,24.53,0,0,1,1.42-6.52,27.91,27.91,0,0,0,1.53-7.94,11.69,11.69,0,0,0-2.19-7,6.76,6.76,0,0,0-1.92-1.88,4.26,4.26,0,0,0-2.25-.66,4.72,4.72,0,0,0-2.11.53,9.55,9.55,0,0,0-2.88,2.41,25.81,25.81,0,0,0-3,4.52c-0.72,1.36-1.14,2.36-1.15,2.39l0,0.1-13.46,56.83v0.07a80.63,80.63,0,0,1-9.42,24.23,60,60,0,0,1-14.69,17,49.16,49.16,0,0,1-24.15,9.92l0.17,1.33V272.4h-6.17v1.35l0.17-1.33a49.17,49.17,0,0,1-24.45-10.16c-9.59-7.53-15.57-17.79-19.13-26.19a84.12,84.12,0,0,1-3.68-10.59c-0.36-1.33-.62-2.4-0.78-3.13-0.08-.37-0.14-0.65-0.17-0.83l0-.21v-0.11l-13.48-56.9-0.09-.16a36.9,36.9,0,0,0-3.24-4.71,20.21,20.21,0,0,0-3.34-3.33,9.55,9.55,0,0,0-2-1.19,5.77,5.77,0,0,0-2.27-.5A4.7,4.7,0,0,0,103,155a6.47,6.47,0,0,0-2,1.9,11.69,11.69,0,0,0-2.19,7,27.85,27.85,0,0,0,1.53,7.94,24.62,24.62,0,0,1,1.42,6.52c0,0.14,0,.27,0,0.41h0c0,0.22,0,.44,0,0.66a12.46,12.46,0,0,0,1.14,5.12c1.18,2.65,3.27,5.47,6.53,8.88a170.42,170.42,0,0,0,13.73,12.4l1,0.86,1.72-2.07-1-.86c-7.93-6.59-13.12-11.43-16.25-15.26a22.6,22.6,0,0,1-3.27-5,9.77,9.77,0,0,1-.91-4c0-.17,0-0.34,0-0.51h0c0-.18,0-0.36,0-0.54a26.61,26.61,0,0,0-1.54-7.3,25.51,25.51,0,0,1-1.42-7.16,9,9,0,0,1,1.7-5.43,3.84,3.84,0,0,1,1.16-1.13,2,2,0,0,1,1-.28,3.15,3.15,0,0,1,1.21.28,9.12,9.12,0,0,1,2.55,1.82,26.46,26.46,0,0,1,3.36,4.07c0.43,0.63.78,1.18,1,1.57l0.27,0.45,0.07,0.12,0,0,1.17-.66-1.31.31,13.43,56.68,1.31-.31-1.32.23a82.86,82.86,0,0,0,9.42,24.57A63.2,63.2,0,0,0,152,264.37a51.88,51.88,0,0,0,25.76,10.71h6.52A51.87,51.87,0,0,0,210,264.37c10.1-7.94,16.27-18.6,19.95-27.26a78.2,78.2,0,0,0,4.86-15.42l-1.32-.23,1.31,0.31,13.43-56.68-1.31-.31,1.24,0.52v0a31.49,31.49,0,0,1,2.42-4.49,13.89,13.89,0,0,1,2.23-2.7,5,5,0,0,1,1.1-.76,2,2,0,0,1,.88-0.23,1.55,1.55,0,0,1,.84.26,4.13,4.13,0,0,1,1.14,1.15,9,9,0,0,1,1.69,5.43,25.46,25.46,0,0,1-1.42,7.16,26.61,26.61,0,0,0-1.54,7.3c0,0.18,0,.37,0,0.55h0c0,0.28,0,.55,0,0.83a12.26,12.26,0,0,1-.69,4.09,25,25,0,0,1-5.05,8,110.17,110.17,0,0,1-12.7,12l-1,.86,1.72,2.07,1-.86"/><path class="cls-3" d="M135.59,207.19l0.16,0.65c0.07,0.29,7.14,29.22,21.5,51.68l0.36,0.57-22-52.9"/><path class="cls-6" d="M197,169.55a74.81,74.81,0,0,0,11.93,1c5.91,0,12.91-.74,18.35-3.63l0.59-.32-0.63-1.19-0.59.32c-5.09,2.72-11.93,3.48-17.72,3.47a76.7,76.7,0,0,1-8.3-.47c-1.06-.12-1.91-0.23-2.49-0.32l-0.67-.1-0.23,0-0.66-.12-0.24,1.32,0.66,0.12h0Z"/><g class="cls-7"><circle class="cls-6" cx="208.38" cy="163.66" r="7.04" transform="matrix(0.97, -0.26, 0.26, 0.97, -35.26, 59.51)"/><circle class="cls-2" cx="205.97" cy="164.16" r="1.84" transform="translate(-42.84 250.55) rotate(-57.7)"/><circle class="cls-2" cx="203.53" cy="164.57" r="1.03" transform="translate(-44.33 248.68) rotate(-57.7)"/><path class="cls-2" d="M209.33,170.15a6.51,6.51,0,0,0,4.61-8l-0.18-.66-1.31.35,0.18,0.66a5.15,5.15,0,0,1-3.65,6.32l-0.66.18,0.35,1.31,0.66-.18h0Z"/></g><g class="cls-8"><circle class="cls-6" cx="154.37" cy="163.66" r="7.04" transform="translate(-37.1 45.53) rotate(-15)"/><circle class="cls-2" cx="151.96" cy="164.16" r="1.84" transform="translate(-68 204.9) rotate(-57.7)"/><circle class="cls-2" cx="149.52" cy="164.57" r="1.03" transform="translate(-69.48 203.01) rotate(-57.7)"/><path class="cls-2" d="M155.31,170.15a6.51,6.51,0,0,0,4.61-8l-0.18-.66-1.31.35,0.18,0.66a5.15,5.15,0,0,1-3.65,6.32l-0.66.18,0.35,1.31,0.66-.18h0Z"/></g><path class="cls-4" d="M223.73,171c-2.26,2.52-6.45,4.46-12.63,4.46-4.62,0-10.37-1.09-17.26-3.84a66.48,66.48,0,0,0,7.54,3.83,38.42,38.42,0,0,0,5.75,1.58,21.18,21.18,0,0,0,3.67.35,16,16,0,0,0,3.05-.29,17.1,17.1,0,0,0,9.87-6.09"/><path class="cls-4" d="M139,171a17.1,17.1,0,0,0,9.87,6.09,16,16,0,0,0,3.05.29,21.19,21.19,0,0,0,3.68-.35,38.56,38.56,0,0,0,5.75-1.58,66.58,66.58,0,0,0,7.54-3.83c-6.89,2.75-12.63,3.84-17.26,3.84-6.18,0-10.37-1.94-12.63-4.46"/><path class="cls-3" d="M225.91,207.19l-22,52.9,0.36-.57c14.36-22.46,21.43-51.39,21.5-51.68l0.16-.65"/><path class="cls-4" d="M200.56,160.63s-0.84-.07-2.12-0.07c-3.73,0-11.33.59-11.94,5v0.25s1.74,19.34,1.74,27.94v1.34h2.69v-1.34c0-8.86-1.28-24.49-1.47-26.79C190.68,164.17,193.6,160.93,200.56,160.63Z"/><path class="cls-4" d="M161.81,160.63s0.84-.07,2.12-0.07c3.73,0,11.33.59,11.94,5v0.25s-1.74,19.34-1.74,27.94v1.34h-2.69v-1.34c0-8.86,1.28-24.49,1.47-26.79C171.69,164.17,168.77,160.93,161.81,160.63Z"/></svg>