<svg xmlns="http://www.w3.org/2000/svg" viewBox="0 0 24 24" fill="currentColor">
  <path d="M8.267 8.269l-1.015 1.464a1 1 0 0 1 -1.43 .18a10.083 10.083 0 0 1 -2.709 -4.784a1 1 0 0 1 .902 -1.262a12.826 12.826 0 0 0 3.367 .084c.414 -.045 .823 -.116 1.223 -.213l1.67 -.404c.424 -.102 .854 -.178 1.287 -.228a4.861 4.861 0 0 1 3.595 .9l.168 .135l2.236 -.752a1 1 0 0 1 1.217 1.367l-.767 1.608l.11 .038a1 1 0 0 1 .327 1.648a9.096 9.096 0 0 1 -4.854 3.063l.075 .056l3.223 2.416a1 1 0 0 1 -.096 1.663l-2.213 1.328c-1.887 1.132 -3.978 1.725 -6.115 1.733a14.85 14.85 0 0 1 -1.182 -.043l.02 .02l5.771 5.77a1 1 0 1 1 -1.414 1.415l-7.907 -7.907a1 1 0 0 1 -.111 -1.238a8.66 8.66 0 0 0 .698 -.936l.324 -.485z" />
</svg>