<svg width="80" height="80" viewBox="0 0 80 80" fill="none" xmlns="http://www.w3.org/2000/svg">
  <rect width="80" height="80" rx="16" fill="#4F46E5"/>
  <path d="M40 20C28.954 20 20 28.954 20 40C20 51.046 28.954 60 40 60C51.046 60 60 51.046 60 40C60 28.954 51.046 20 40 20ZM40 56C31.163 56 24 48.837 24 40C24 31.163 31.163 24 40 24C48.837 24 56 31.163 56 40C56 48.837 48.837 56 40 56Z" fill="white"/>
  <path d="M40 28C33.373 28 28 33.373 28 40C28 46.627 33.373 52 40 52C46.627 52 52 46.627 52 40C52 33.373 46.627 28 40 28ZM40 48C35.582 48 32 44.418 32 40C32 35.582 35.582 32 40 32C44.418 32 48 35.582 48 40C48 44.418 44.418 48 40 48Z" fill="white"/>
  <circle cx="40" cy="40" r="4" fill="white"/>
</svg>
