<?xml version="1.0" standalone="no"?>
<!DOCTYPE svg PUBLIC "-//W3C//DTD SVG 20010904//EN"
 "http://www.w3.org/TR/2001/REC-SVG-20010904/DTD/svg10.dtd">
<svg version="1.0" xmlns="http://www.w3.org/2000/svg"
 width="784.000000pt" height="784.000000pt" viewBox="0 0 784.000000 784.000000"
 preserveAspectRatio="xMidYMid meet">
<metadata>
Created by potrace 1.14, written by Peter Selinger 2001-2017
</metadata>
<g transform="translate(0.000000,784.000000) scale(0.100000,-0.100000)"
fill="#000000" stroke="none">
<path d="M2057 7523 c-4 -3 -30 -7 -59 -8 -123 -7 -257 -30 -383 -68 -38 -12
-72 -22 -75 -22 -3 -1 -18 -7 -33 -13 -16 -7 -31 -12 -33 -12 -26 0 -314 -150
-369 -192 -204 -157 -275 -223 -379 -353 -189 -235 -303 -472 -366 -761 -25
-117 -33 -179 -34 -296 -1 -49 -4 -88 -7 -88 -4 0 -3 -16 1 -35 4 -19 5 -35 1
-35 -3 0 -5 -21 -3 -47 1 -27 3 -54 2 -60 0 -7 0 -20 0 -28 0 -8 0 -22 0 -30
0 -8 0 -22 0 -30 0 -8 0 -22 0 -30 0 -8 0 -22 0 -30 0 -8 0 -22 0 -30 0 -8 0
-22 0 -30 0 -8 0 -22 0 -30 0 -8 0 -22 0 -30 0 -8 0 -22 0 -30 0 -8 0 -22 0
-30 0 -8 0 -22 0 -30 0 -8 0 -22 0 -30 0 -8 0 -22 0 -30 0 -8 0 -22 0 -30 0
-8 0 -22 0 -30 0 -8 0 -22 0 -30 0 -8 1 -30 2 -47 2 -18 0 -43 -4 -55 -4 -12
-3 -25 2 -28 5 -3 5 -18 0 -35 -5 -17 -6 -30 -2 -30 4 0 7 -18 7 -40 0 -22 -3
-40 -6 -40 -4 0 -3 -16 1 -35 4 -19 5 -35 1 -35 -7 0 -5 -89 3 -97 3 -3 1 -14
-4 -24 -7 -11 -7 -20 0 -24 5 -3 6 -15 1 -28 -5 -12 -5 -34 0 -49 4 -16 4 -28
-1 -28 -5 0 -5 -13 0 -30 5 -17 5 -30 0 -30 -5 0 -5 -13 0 -30 5 -17 5 -30 0
-30 -5 0 -5 -13 0 -30 5 -18 5 -30 0 -30 -6 0 -6 -10 0 -24 5 -13 6 -27 3 -30
-8 -8 -9 -76 -1 -76 4 0 3 -13 -2 -30 -5 -16 -6 -30 -2 -30 8 0 7 -83 -1 -104
-8 -21 13 -35 53 -36 28 -1 454 -2 510 -1 8 0 112 0 230 0 118 0 220 0 225 0
199 3 629 0 633 -4 3 -3 -10 -6 -29 -6 -85 -3 -156 -16 -304 -55 -11 -3 -24
-6 -30 -7 -5 -2 -15 -6 -21 -9 -6 -4 -21 -9 -35 -12 -36 -7 -143 -52 -250
-106 -371 -187 -677 -517 -838 -905 -46 -109 -74 -201 -106 -340 -4 -15 -16
-86 -21 -125 -3 -19 -7 -69 -9 -110 -2 -41 -5 -77 -6 -80 -1 -3 -1 -9 0 -14 1
-4 4 -61 6 -125 3 -64 7 -127 10 -141 3 -14 7 -38 10 -55 2 -16 7 -41 9 -55 3
-14 8 -35 10 -47 41 -204 158 -462 298 -656 62 -86 71 -97 139 -168 30 -33 53
-61 51 -64 -3 -3 -1 -5 4 -5 5 0 32 -21 59 -46 68 -62 176 -142 260 -194 89
-55 259 -140 279 -140 8 0 17 -4 20 -9 5 -7 103 -39 144 -47 8 -1 21 -6 30
-10 22 -9 29 -11 77 -19 22 -4 43 -9 46 -11 4 -2 24 -6 45 -9 22 -3 50 -7 64
-10 27 -6 226 -15 325 -16 96 0 334 0 350 0 35 2 55 2 155 1 58 0 153 1 213 2
59 2 107 1 107 -2 0 -3 45 -4 100 -3 55 1 161 2 235 2 74 0 142 0 150 0 8 1
23 1 33 1 18 1 185 1 306 1 63 0 68 1 63 19 -3 11 -2 20 1 20 6 0 7 85 1 100
-5 14 -4 36 3 45 4 6 3 17 -1 24 -5 8 -5 27 -1 42 5 16 5 29 0 29 -5 0 -5 12
-1 28 5 15 5 37 0 49 -5 13 -4 25 1 28 7 4 6 13 0 25 -7 13 -7 21 0 25 6 4 8
11 4 16 -8 14 -12 69 -5 69 5 0 5 86 0 100 -5 14 -4 36 3 45 4 6 3 17 -1 24
-5 8 -5 27 -1 42 5 16 5 29 0 29 -5 0 -5 12 -1 28 5 15 5 37 0 49 -5 13 -4 25
1 28 7 4 6 13 0 25 -7 13 -7 21 0 25 6 4 8 11 4 16 -8 14 -12 69 -5 69 8 0 5
85 -2 97 -3 5 -2 15 3 23 4 7 5 20 2 29 -8 20 -7 63 1 84 3 9 2 19 -4 23 -7 4
-7 10 0 18 6 7 6 18 1 26 -4 7 -5 23 0 35 4 11 4 28 -1 37 -6 11 -5 19 1 23 6
4 8 11 4 16 -9 15 -12 69 -4 74 4 2 4 27 0 55 -4 27 -4 52 -2 55 10 9 23 5 17
-5 -4 -6 -1 -34 4 -63 27 -126 33 -166 30 -170 -2 -2 2 -11 10 -20 7 -10 11
-17 8 -17 -3 0 1 -17 10 -37 8 -21 15 -40 15 -43 1 -17 54 -154 91 -230 37
-76 145 -253 158 -258 5 -2 9 -10 9 -17 0 -7 3 -15 8 -17 4 -1 23 -23 42 -48
64 -83 174 -192 275 -272 55 -43 105 -83 112 -88 7 -6 16 -10 21 -10 4 0 17
-8 28 -18 11 -9 33 -25 49 -34 46 -25 219 -110 230 -112 5 -2 27 -10 49 -19
21 -9 44 -17 50 -17 6 0 24 -7 40 -15 15 -8 31 -13 35 -10 4 2 19 -2 34 -10
15 -8 27 -12 27 -10 0 1 17 -1 38 -6 63 -16 75 -18 112 -24 20 -3 47 -8 60
-10 21 -4 243 -18 275 -17 32 1 174 13 196 17 15 3 44 7 65 10 22 3 50 8 64
11 14 3 41 9 60 14 29 7 119 32 155 44 10 3 29 10 125 48 76 31 190 92 285
153 184 118 378 307 490 475 16 25 32 47 36 50 22 20 140 255 170 337 11 32
23 65 26 73 8 19 7 17 37 131 13 53 27 116 31 140 3 24 8 51 11 60 9 30 17
216 12 277 -2 23 -1 42 2 42 3 0 5 18 5 40 0 22 -3 40 -7 40 -4 0 -3 14 2 30
5 19 5 30 -1 30 -6 0 -8 4 -5 8 6 10 8 83 4 135 -2 20 -1 37 2 37 3 0 5 18 5
40 0 22 -3 40 -7 40 -4 0 -3 14 2 30 5 17 5 30 1 30 -4 0 -4 26 -1 58 3 33 3
73 -1 90 -4 18 -4 32 0 32 3 0 6 23 6 50 0 28 -4 50 -8 50 -5 0 -5 4 -2 10 8
13 11 108 3 116 -4 3 -3 17 2 30 6 14 6 26 0 29 -7 4 -7 13 0 24 5 10 7 21 4
24 -8 8 -11 77 -3 77 4 0 3 16 -1 35 -4 19 -5 35 -1 35 3 0 6 23 6 50 0 28 -3
50 -7 50 -4 0 -3 14 2 30 5 17 5 30 0 30 -5 0 -5 13 0 30 5 17 5 30 0 30 -4 0
-4 16 0 34 4 19 5 38 2 41 -8 7 -5 102 3 115 3 5 1 10 -5 10 -6 0 -8 5 -5 11
9 13 9 144 1 157 -4 7 -62 14 -111 14 -195 -3 -1538 -2 -1541 1 -2 2 2 4 9 5
6 0 39 3 72 6 55 5 71 8 130 20 22 5 99 24 128 31 9 3 25 7 35 9 10 2 35 11
55 20 21 8 41 16 45 17 4 1 17 5 30 10 13 5 25 9 28 9 11 0 199 95 202 102 2
5 8 8 14 8 14 0 103 59 203 133 74 56 228 203 285 272 86 105 219 305 203 305
-5 0 -3 4 2 8 12 9 55 95 55 111 0 6 3 11 8 11 4 0 12 17 19 38 6 20 17 51 24
67 7 17 13 32 14 35 0 3 10 37 22 75 40 132 65 282 67 402 1 29 5 53 9 53 5 0
6 4 2 9 -3 5 -7 63 -10 128 -5 125 -9 158 -25 238 -6 28 -12 60 -15 73 -7 41
-36 135 -67 222 -27 75 -111 258 -130 285 -4 6 -35 51 -68 100 -80 122 -99
144 -220 265 -109 109 -191 180 -208 180 -6 0 -12 4 -14 9 -1 5 -32 27 -68 50
-36 22 -69 44 -75 48 -44 34 -333 158 -390 167 -5 1 -16 5 -22 9 -7 5 -13 6
-13 2 0 -3 -8 -1 -17 4 -10 5 -36 12 -58 15 -22 4 -56 11 -75 15 -19 5 -42 9
-50 9 -8 0 -25 3 -38 6 -20 4 -190 18 -217 18 -13 -1 -134 -1 -157 -1 -10 0
-88 0 -173 -1 -85 -1 -159 1 -164 5 -5 3 -12 2 -15 -3 -3 -4 -30 -5 -61 -2
-31 3 -58 2 -61 -2 -3 -5 -9 -6 -13 -4 -6 4 -69 7 -126 6 -53 -2 -284 -1 -310
0 -16 1 -37 2 -45 1 -8 0 -85 0 -170 0 -85 0 -162 0 -170 0 -8 0 -35 0 -60 0
-25 0 -51 0 -57 0 -7 0 -33 0 -58 0 -25 0 -52 0 -60 0 -8 0 -35 -1 -60 -1 -24
-1 -49 1 -54 4 -13 8 -19 -32 -10 -66 4 -15 3 -30 -2 -34 -5 -3 -7 -10 -4 -15
8 -12 12 -89 5 -89 -3 0 -4 -21 -3 -47 1 -27 2 -48 3 -48 6 0 4 -58 -2 -61 -5
-3 -4 -13 1 -22 6 -11 6 -24 0 -35 -7 -11 -7 -17 0 -17 6 0 6 -11 1 -29 -4
-15 -4 -34 0 -42 5 -7 4 -21 -1 -30 -6 -12 -5 -20 1 -24 8 -5 8 -11 1 -19 -6
-7 -8 -15 -5 -18 7 -7 11 -88 4 -88 -3 0 -4 -21 -3 -47 1 -27 2 -48 3 -48 6 0
4 -58 -2 -61 -5 -3 -4 -13 1 -22 6 -11 6 -24 0 -35 -6 -10 -6 -17 -1 -17 6 0
7 -14 2 -35 -4 -19 -4 -37 1 -40 4 -3 5 -13 2 -23 -7 -16 -7 -45 0 -110 2 -18
0 -35 -5 -38 -4 -3 -4 -13 1 -22 6 -11 6 -24 0 -35 -6 -9 -6 -17 -1 -17 4 0 6
-23 2 -50 -4 -28 -4 -52 -2 -55 8 -7 8 -65 1 -65 -4 0 -3 -18 1 -39 4 -22 4
-45 0 -51 -4 -6 -4 -31 0 -55 4 -24 3 -50 -1 -57 -6 -9 -9 -7 -10 7 -1 11 -3
29 -5 40 -2 11 -5 34 -7 50 -2 17 -7 39 -10 50 -3 11 -8 31 -11 45 -2 14 -9
45 -16 70 -7 25 -13 50 -15 55 -1 6 -5 17 -8 25 -18 48 -49 136 -51 145 -9 47
-184 353 -208 363 -4 2 -8 10 -8 18 0 8 -4 14 -8 14 -4 0 -16 14 -27 32 -19
32 -237 254 -291 296 -16 12 -69 50 -119 83 -49 32 -94 63 -100 67 -54 42
-395 179 -460 184 -14 1 -25 5 -25 8 0 3 -8 6 -17 7 -10 1 -30 4 -45 7 -97 21
-114 23 -273 31 -71 4 -132 8 -136 10 -3 3 -9 2 -12 -2z m1868 -1633 c3 -5 1
-10 -4 -10 -6 0 -11 5 -11 10 0 6 2 10 4 10 3 0 8 -4 11 -10z m1 -292 c0 -23
13 -149 19 -178 39 -196 85 -341 155 -480 57 -116 88 -170 106 -191 8 -8 14
-21 14 -28 0 -6 7 -14 15 -17 8 -4 15 -12 15 -20 0 -8 5 -14 10 -14 6 0 10 -5
10 -11 0 -6 6 -16 13 -24 6 -7 27 -32 46 -56 94 -120 283 -287 435 -384 56
-35 250 -137 271 -141 6 -1 48 -16 95 -33 72 -26 137 -44 235 -66 10 -3 35 -7
55 -10 20 -3 47 -8 60 -10 14 -3 42 -6 63 -6 20 -1 37 -5 37 -10 0 -5 -17 -9
-37 -10 -21 0 -46 -2 -55 -4 -9 -2 -34 -6 -55 -8 -59 -9 -145 -27 -173 -37
-14 -5 -36 -11 -50 -14 -41 -6 -206 -73 -303 -122 -247 -124 -465 -308 -628
-529 -33 -44 -63 -84 -67 -90 -4 -5 -30 -50 -58 -100 -95 -169 -173 -378 -199
-535 -3 -19 -8 -42 -10 -50 -6 -20 -18 -130 -17 -152 0 -10 -3 -18 -7 -18 -4
0 -8 17 -9 38 -1 20 -4 48 -7 62 -3 14 -7 41 -10 60 -5 37 -38 191 -45 210 -1
3 -3 10 -4 15 -1 6 -5 17 -9 25 -3 8 -17 47 -30 85 -51 149 -142 314 -261 474
-53 69 -234 255 -300 306 -82 64 -236 162 -307 197 -78 38 -183 85 -209 93
-20 6 -96 29 -102 31 -5 1 -9 2 -10 4 -5 3 -43 12 -60 13 -10 1 -18 4 -18 7 0
3 -8 6 -17 7 -10 0 -29 4 -43 7 -14 4 -41 8 -60 11 -19 3 -46 7 -60 10 -14 3
-42 6 -62 6 -49 2 -49 19 0 20 85 2 266 41 402 86 160 53 398 180 514 273 118
94 229 203 301 294 17 20 40 49 51 64 63 80 194 309 194 339 0 7 5 13 10 13 6
0 10 8 10 18 0 10 3 22 8 26 4 4 7 11 7 14 0 4 5 21 12 37 12 32 22 62 23 70
0 3 8 24 16 47 16 46 31 106 40 166 3 20 8 40 9 43 2 3 7 39 11 80 10 114 11
119 17 119 2 0 3 -10 3 -22z m-1681 -1678 c3 -5 1 -10 -4 -10 -6 0 -11 5 -11
10 0 6 2 10 4 10 3 0 8 -4 11 -10z m1685 -1975 c0 -8 -4 -15 -10 -15 -5 0 -7
7 -4 15 4 8 8 15 10 15 2 0 4 -7 4 -15z"/>
</g>
</svg>
